<mxfile host="app.diagrams.net" modified="2024-06-05T14:50:21.321Z" agent="Mozilla/5.0 (Windows NT 10.0; Win64; x64) AppleWebKit/537.36 (KHTML, like Gecko) Chrome/125.0.0.0 Safari/537.36" etag="hFRSz9tcdXCAiH79t1I7" version="24.4.13" type="device">
  <diagram name="第 1 页" id="33T3oQKg2jp4dK40noAK">
    <mxGraphModel dx="1434" dy="738" grid="1" gridSize="10" guides="1" tooltips="1" connect="1" arrows="1" fold="1" page="1" pageScale="1" pageWidth="1169" pageHeight="1654" math="0" shadow="0">
      <root>
        <mxCell id="0" />
        <mxCell id="1" parent="0" />
        <mxCell id="MjjTUTkJ0xS1mPN5Bs5z-238" value="" style="rounded=1;whiteSpace=wrap;html=1;fillColor=none;dashed=1;strokeWidth=2;" parent="1" vertex="1">
          <mxGeometry x="30" y="750" width="220" height="140" as="geometry" />
        </mxCell>
        <mxCell id="MjjTUTkJ0xS1mPN5Bs5z-239" value="" style="rounded=1;whiteSpace=wrap;html=1;fillColor=none;dashed=1;strokeWidth=2;" parent="1" vertex="1">
          <mxGeometry x="30" y="510" width="220" height="140" as="geometry" />
        </mxCell>
        <mxCell id="MjjTUTkJ0xS1mPN5Bs5z-240" value="" style="rounded=1;whiteSpace=wrap;html=1;fillColor=none;dashed=1;strokeWidth=2;" parent="1" vertex="1">
          <mxGeometry x="590" y="270" width="220" height="140" as="geometry" />
        </mxCell>
        <mxCell id="MjjTUTkJ0xS1mPN5Bs5z-1" value="" style="rounded=0;whiteSpace=wrap;html=1;" parent="1" vertex="1">
          <mxGeometry x="40" y="40" width="40" height="40" as="geometry" />
        </mxCell>
        <mxCell id="MjjTUTkJ0xS1mPN5Bs5z-26" style="edgeStyle=orthogonalEdgeStyle;rounded=0;orthogonalLoop=1;jettySize=auto;html=1;exitX=0;exitY=1;exitDx=0;exitDy=0;entryX=0;entryY=0;entryDx=0;entryDy=0;" parent="1" source="MjjTUTkJ0xS1mPN5Bs5z-2" target="MjjTUTkJ0xS1mPN5Bs5z-19" edge="1">
          <mxGeometry relative="1" as="geometry" />
        </mxCell>
        <mxCell id="MjjTUTkJ0xS1mPN5Bs5z-2" value="" style="rounded=0;whiteSpace=wrap;html=1;" parent="1" vertex="1">
          <mxGeometry x="80" y="40" width="40" height="40" as="geometry" />
        </mxCell>
        <mxCell id="MjjTUTkJ0xS1mPN5Bs5z-3" value="" style="rounded=0;whiteSpace=wrap;html=1;" parent="1" vertex="1">
          <mxGeometry x="160" y="40" width="40" height="40" as="geometry" />
        </mxCell>
        <mxCell id="MjjTUTkJ0xS1mPN5Bs5z-27" style="edgeStyle=orthogonalEdgeStyle;rounded=0;orthogonalLoop=1;jettySize=auto;html=1;exitX=0;exitY=1;exitDx=0;exitDy=0;entryX=0;entryY=0;entryDx=0;entryDy=0;" parent="1" source="MjjTUTkJ0xS1mPN5Bs5z-4" target="MjjTUTkJ0xS1mPN5Bs5z-21" edge="1">
          <mxGeometry relative="1" as="geometry" />
        </mxCell>
        <mxCell id="MjjTUTkJ0xS1mPN5Bs5z-4" value="" style="rounded=0;whiteSpace=wrap;html=1;" parent="1" vertex="1">
          <mxGeometry x="200" y="40" width="40" height="40" as="geometry" />
        </mxCell>
        <mxCell id="MjjTUTkJ0xS1mPN5Bs5z-34" style="edgeStyle=orthogonalEdgeStyle;rounded=0;orthogonalLoop=1;jettySize=auto;html=1;exitX=1;exitY=1;exitDx=0;exitDy=0;entryX=0;entryY=0;entryDx=0;entryDy=0;" parent="1" source="MjjTUTkJ0xS1mPN5Bs5z-5" target="MjjTUTkJ0xS1mPN5Bs5z-31" edge="1">
          <mxGeometry relative="1" as="geometry" />
        </mxCell>
        <mxCell id="MjjTUTkJ0xS1mPN5Bs5z-5" value="" style="rounded=0;whiteSpace=wrap;html=1;" parent="1" vertex="1">
          <mxGeometry x="320" y="40" width="40" height="40" as="geometry" />
        </mxCell>
        <mxCell id="MjjTUTkJ0xS1mPN5Bs5z-6" value="" style="rounded=0;whiteSpace=wrap;html=1;" parent="1" vertex="1">
          <mxGeometry x="360" y="40" width="40" height="40" as="geometry" />
        </mxCell>
        <mxCell id="MjjTUTkJ0xS1mPN5Bs5z-7" value="c1" style="rounded=0;whiteSpace=wrap;html=1;fillColor=#ffcccc;strokeColor=#36393d;" parent="1" vertex="1">
          <mxGeometry x="440" y="40" width="40" height="40" as="geometry" />
        </mxCell>
        <mxCell id="MjjTUTkJ0xS1mPN5Bs5z-37" style="edgeStyle=orthogonalEdgeStyle;rounded=0;orthogonalLoop=1;jettySize=auto;html=1;exitX=0;exitY=1;exitDx=0;exitDy=0;entryX=0;entryY=0;entryDx=0;entryDy=0;" parent="1" source="MjjTUTkJ0xS1mPN5Bs5z-8" target="MjjTUTkJ0xS1mPN5Bs5z-33" edge="1">
          <mxGeometry relative="1" as="geometry" />
        </mxCell>
        <mxCell id="MjjTUTkJ0xS1mPN5Bs5z-8" value="d1" style="rounded=0;whiteSpace=wrap;html=1;fillColor=#ffcccc;strokeColor=#36393d;" parent="1" vertex="1">
          <mxGeometry x="480" y="40" width="40" height="40" as="geometry" />
        </mxCell>
        <mxCell id="MjjTUTkJ0xS1mPN5Bs5z-18" value="" style="rounded=0;whiteSpace=wrap;html=1;" parent="1" vertex="1">
          <mxGeometry x="40" y="120" width="40" height="40" as="geometry" />
        </mxCell>
        <mxCell id="MjjTUTkJ0xS1mPN5Bs5z-36" style="edgeStyle=orthogonalEdgeStyle;rounded=0;orthogonalLoop=1;jettySize=auto;html=1;exitX=0;exitY=1;exitDx=0;exitDy=0;entryX=0;entryY=0.5;entryDx=0;entryDy=0;" parent="1" source="MjjTUTkJ0xS1mPN5Bs5z-19" target="MjjTUTkJ0xS1mPN5Bs5z-30" edge="1">
          <mxGeometry relative="1" as="geometry" />
        </mxCell>
        <mxCell id="MjjTUTkJ0xS1mPN5Bs5z-19" value="" style="rounded=0;whiteSpace=wrap;html=1;" parent="1" vertex="1">
          <mxGeometry x="80" y="120" width="40" height="40" as="geometry" />
        </mxCell>
        <mxCell id="MjjTUTkJ0xS1mPN5Bs5z-20" value="" style="rounded=0;whiteSpace=wrap;html=1;" parent="1" vertex="1">
          <mxGeometry x="160" y="120" width="40" height="40" as="geometry" />
        </mxCell>
        <mxCell id="MjjTUTkJ0xS1mPN5Bs5z-38" style="edgeStyle=orthogonalEdgeStyle;rounded=0;orthogonalLoop=1;jettySize=auto;html=1;" parent="1" source="MjjTUTkJ0xS1mPN5Bs5z-21" edge="1">
          <mxGeometry relative="1" as="geometry">
            <mxPoint x="480" y="140" as="targetPoint" />
          </mxGeometry>
        </mxCell>
        <mxCell id="MjjTUTkJ0xS1mPN5Bs5z-21" value="" style="rounded=0;whiteSpace=wrap;html=1;" parent="1" vertex="1">
          <mxGeometry x="200" y="120" width="40" height="40" as="geometry" />
        </mxCell>
        <mxCell id="MjjTUTkJ0xS1mPN5Bs5z-30" value="" style="rounded=0;whiteSpace=wrap;html=1;" parent="1" vertex="1">
          <mxGeometry x="320" y="200" width="40" height="40" as="geometry" />
        </mxCell>
        <mxCell id="MjjTUTkJ0xS1mPN5Bs5z-31" value="" style="rounded=0;whiteSpace=wrap;html=1;" parent="1" vertex="1">
          <mxGeometry x="360" y="200" width="40" height="40" as="geometry" />
        </mxCell>
        <mxCell id="MjjTUTkJ0xS1mPN5Bs5z-32" value="c1" style="rounded=0;whiteSpace=wrap;html=1;fillColor=#ffcccc;strokeColor=#36393d;" parent="1" vertex="1">
          <mxGeometry x="440" y="200" width="40" height="40" as="geometry" />
        </mxCell>
        <mxCell id="MjjTUTkJ0xS1mPN5Bs5z-33" value="d1" style="rounded=0;whiteSpace=wrap;html=1;fillColor=#ffcccc;strokeColor=#36393d;" parent="1" vertex="1">
          <mxGeometry x="480" y="200" width="40" height="40" as="geometry" />
        </mxCell>
        <mxCell id="MjjTUTkJ0xS1mPN5Bs5z-39" value="" style="rounded=0;whiteSpace=wrap;html=1;" parent="1" vertex="1">
          <mxGeometry x="600" y="40" width="40" height="40" as="geometry" />
        </mxCell>
        <mxCell id="MjjTUTkJ0xS1mPN5Bs5z-40" style="edgeStyle=orthogonalEdgeStyle;rounded=0;orthogonalLoop=1;jettySize=auto;html=1;exitX=0;exitY=1;exitDx=0;exitDy=0;entryX=0;entryY=0;entryDx=0;entryDy=0;" parent="1" source="MjjTUTkJ0xS1mPN5Bs5z-41" target="MjjTUTkJ0xS1mPN5Bs5z-53" edge="1">
          <mxGeometry relative="1" as="geometry" />
        </mxCell>
        <mxCell id="MjjTUTkJ0xS1mPN5Bs5z-41" value="" style="rounded=0;whiteSpace=wrap;html=1;" parent="1" vertex="1">
          <mxGeometry x="640" y="40" width="40" height="40" as="geometry" />
        </mxCell>
        <mxCell id="MjjTUTkJ0xS1mPN5Bs5z-42" value="" style="rounded=0;whiteSpace=wrap;html=1;" parent="1" vertex="1">
          <mxGeometry x="720" y="40" width="40" height="40" as="geometry" />
        </mxCell>
        <mxCell id="MjjTUTkJ0xS1mPN5Bs5z-43" style="edgeStyle=orthogonalEdgeStyle;rounded=0;orthogonalLoop=1;jettySize=auto;html=1;exitX=0;exitY=1;exitDx=0;exitDy=0;entryX=0;entryY=0;entryDx=0;entryDy=0;" parent="1" source="MjjTUTkJ0xS1mPN5Bs5z-44" target="MjjTUTkJ0xS1mPN5Bs5z-56" edge="1">
          <mxGeometry relative="1" as="geometry" />
        </mxCell>
        <mxCell id="MjjTUTkJ0xS1mPN5Bs5z-44" value="" style="rounded=0;whiteSpace=wrap;html=1;" parent="1" vertex="1">
          <mxGeometry x="760" y="40" width="40" height="40" as="geometry" />
        </mxCell>
        <mxCell id="MjjTUTkJ0xS1mPN5Bs5z-45" style="edgeStyle=orthogonalEdgeStyle;rounded=0;orthogonalLoop=1;jettySize=auto;html=1;exitX=1;exitY=1;exitDx=0;exitDy=0;entryX=0;entryY=0;entryDx=0;entryDy=0;" parent="1" source="MjjTUTkJ0xS1mPN5Bs5z-46" target="MjjTUTkJ0xS1mPN5Bs5z-58" edge="1">
          <mxGeometry relative="1" as="geometry" />
        </mxCell>
        <mxCell id="MjjTUTkJ0xS1mPN5Bs5z-46" value="a1" style="rounded=0;whiteSpace=wrap;html=1;fillColor=#ffcccc;strokeColor=#36393d;" parent="1" vertex="1">
          <mxGeometry x="880" y="40" width="40" height="40" as="geometry" />
        </mxCell>
        <mxCell id="MjjTUTkJ0xS1mPN5Bs5z-47" value="b1" style="rounded=0;whiteSpace=wrap;html=1;fillColor=#ffcccc;strokeColor=#36393d;" parent="1" vertex="1">
          <mxGeometry x="920" y="40" width="40" height="40" as="geometry" />
        </mxCell>
        <mxCell id="MjjTUTkJ0xS1mPN5Bs5z-48" value="" style="rounded=0;whiteSpace=wrap;html=1;" parent="1" vertex="1">
          <mxGeometry x="1000" y="40" width="40" height="40" as="geometry" />
        </mxCell>
        <mxCell id="MjjTUTkJ0xS1mPN5Bs5z-49" style="edgeStyle=orthogonalEdgeStyle;rounded=0;orthogonalLoop=1;jettySize=auto;html=1;exitX=0;exitY=1;exitDx=0;exitDy=0;entryX=0;entryY=0;entryDx=0;entryDy=0;" parent="1" source="MjjTUTkJ0xS1mPN5Bs5z-50" target="MjjTUTkJ0xS1mPN5Bs5z-60" edge="1">
          <mxGeometry relative="1" as="geometry" />
        </mxCell>
        <mxCell id="MjjTUTkJ0xS1mPN5Bs5z-50" value="" style="rounded=0;whiteSpace=wrap;html=1;" parent="1" vertex="1">
          <mxGeometry x="1040" y="40" width="40" height="40" as="geometry" />
        </mxCell>
        <mxCell id="MjjTUTkJ0xS1mPN5Bs5z-51" value="" style="rounded=0;whiteSpace=wrap;html=1;" parent="1" vertex="1">
          <mxGeometry x="600" y="120" width="40" height="40" as="geometry" />
        </mxCell>
        <mxCell id="MjjTUTkJ0xS1mPN5Bs5z-52" style="edgeStyle=orthogonalEdgeStyle;rounded=0;orthogonalLoop=1;jettySize=auto;html=1;exitX=0;exitY=1;exitDx=0;exitDy=0;entryX=0;entryY=0.5;entryDx=0;entryDy=0;" parent="1" source="MjjTUTkJ0xS1mPN5Bs5z-53" target="MjjTUTkJ0xS1mPN5Bs5z-57" edge="1">
          <mxGeometry relative="1" as="geometry" />
        </mxCell>
        <mxCell id="MjjTUTkJ0xS1mPN5Bs5z-53" value="" style="rounded=0;whiteSpace=wrap;html=1;" parent="1" vertex="1">
          <mxGeometry x="640" y="120" width="40" height="40" as="geometry" />
        </mxCell>
        <mxCell id="MjjTUTkJ0xS1mPN5Bs5z-54" value="" style="rounded=0;whiteSpace=wrap;html=1;" parent="1" vertex="1">
          <mxGeometry x="720" y="120" width="40" height="40" as="geometry" />
        </mxCell>
        <mxCell id="MjjTUTkJ0xS1mPN5Bs5z-55" style="edgeStyle=orthogonalEdgeStyle;rounded=0;orthogonalLoop=1;jettySize=auto;html=1;" parent="1" source="MjjTUTkJ0xS1mPN5Bs5z-56" edge="1">
          <mxGeometry relative="1" as="geometry">
            <mxPoint x="1040" y="140" as="targetPoint" />
          </mxGeometry>
        </mxCell>
        <mxCell id="MjjTUTkJ0xS1mPN5Bs5z-56" value="" style="rounded=0;whiteSpace=wrap;html=1;" parent="1" vertex="1">
          <mxGeometry x="760" y="120" width="40" height="40" as="geometry" />
        </mxCell>
        <mxCell id="MjjTUTkJ0xS1mPN5Bs5z-57" value="a1" style="rounded=0;whiteSpace=wrap;html=1;fillColor=#ffcccc;strokeColor=#36393d;" parent="1" vertex="1">
          <mxGeometry x="880" y="200" width="40" height="40" as="geometry" />
        </mxCell>
        <mxCell id="MjjTUTkJ0xS1mPN5Bs5z-58" value="b1" style="rounded=0;whiteSpace=wrap;html=1;fillColor=#ffcccc;strokeColor=#36393d;" parent="1" vertex="1">
          <mxGeometry x="920" y="200" width="40" height="40" as="geometry" />
        </mxCell>
        <mxCell id="MjjTUTkJ0xS1mPN5Bs5z-59" value="" style="rounded=0;whiteSpace=wrap;html=1;" parent="1" vertex="1">
          <mxGeometry x="1000" y="200" width="40" height="40" as="geometry" />
        </mxCell>
        <mxCell id="MjjTUTkJ0xS1mPN5Bs5z-60" value="" style="rounded=0;whiteSpace=wrap;html=1;" parent="1" vertex="1">
          <mxGeometry x="1040" y="200" width="40" height="40" as="geometry" />
        </mxCell>
        <mxCell id="MjjTUTkJ0xS1mPN5Bs5z-61" value="" style="rounded=0;whiteSpace=wrap;html=1;" parent="1" vertex="1">
          <mxGeometry x="40" y="280" width="40" height="40" as="geometry" />
        </mxCell>
        <mxCell id="MjjTUTkJ0xS1mPN5Bs5z-62" value="" style="rounded=0;whiteSpace=wrap;html=1;" parent="1" vertex="1">
          <mxGeometry x="80" y="280" width="40" height="40" as="geometry" />
        </mxCell>
        <mxCell id="MjjTUTkJ0xS1mPN5Bs5z-63" value="" style="rounded=0;whiteSpace=wrap;html=1;" parent="1" vertex="1">
          <mxGeometry x="160" y="280" width="40" height="40" as="geometry" />
        </mxCell>
        <mxCell id="MjjTUTkJ0xS1mPN5Bs5z-64" value="" style="rounded=0;whiteSpace=wrap;html=1;" parent="1" vertex="1">
          <mxGeometry x="200" y="280" width="40" height="40" as="geometry" />
        </mxCell>
        <mxCell id="MjjTUTkJ0xS1mPN5Bs5z-65" value="" style="rounded=0;whiteSpace=wrap;html=1;" parent="1" vertex="1">
          <mxGeometry x="320" y="280" width="40" height="40" as="geometry" />
        </mxCell>
        <mxCell id="MjjTUTkJ0xS1mPN5Bs5z-66" value="" style="rounded=0;whiteSpace=wrap;html=1;" parent="1" vertex="1">
          <mxGeometry x="360" y="280" width="40" height="40" as="geometry" />
        </mxCell>
        <mxCell id="MjjTUTkJ0xS1mPN5Bs5z-67" value="" style="rounded=0;whiteSpace=wrap;html=1;" parent="1" vertex="1">
          <mxGeometry x="440" y="280" width="40" height="40" as="geometry" />
        </mxCell>
        <mxCell id="MjjTUTkJ0xS1mPN5Bs5z-68" value="" style="rounded=0;whiteSpace=wrap;html=1;" parent="1" vertex="1">
          <mxGeometry x="480" y="280" width="40" height="40" as="geometry" />
        </mxCell>
        <mxCell id="MjjTUTkJ0xS1mPN5Bs5z-69" value="a1" style="rounded=0;whiteSpace=wrap;html=1;fillColor=#ffcccc;strokeColor=#36393d;" parent="1" vertex="1">
          <mxGeometry x="600" y="280" width="40" height="40" as="geometry" />
        </mxCell>
        <mxCell id="MjjTUTkJ0xS1mPN5Bs5z-70" value="b1" style="rounded=0;whiteSpace=wrap;html=1;fillColor=#ffcccc;strokeColor=#36393d;" parent="1" vertex="1">
          <mxGeometry x="640" y="280" width="40" height="40" as="geometry" />
        </mxCell>
        <mxCell id="MjjTUTkJ0xS1mPN5Bs5z-71" value="c1" style="rounded=0;whiteSpace=wrap;html=1;fillColor=#ffcccc;strokeColor=#36393d;" parent="1" vertex="1">
          <mxGeometry x="720" y="280" width="40" height="40" as="geometry" />
        </mxCell>
        <mxCell id="MjjTUTkJ0xS1mPN5Bs5z-72" value="d1" style="rounded=0;whiteSpace=wrap;html=1;fillColor=#ffcccc;strokeColor=#36393d;" parent="1" vertex="1">
          <mxGeometry x="760" y="280" width="40" height="40" as="geometry" />
        </mxCell>
        <mxCell id="MjjTUTkJ0xS1mPN5Bs5z-73" value="" style="rounded=0;whiteSpace=wrap;html=1;" parent="1" vertex="1">
          <mxGeometry x="880" y="280" width="40" height="40" as="geometry" />
        </mxCell>
        <mxCell id="MjjTUTkJ0xS1mPN5Bs5z-74" value="" style="rounded=0;whiteSpace=wrap;html=1;" parent="1" vertex="1">
          <mxGeometry x="920" y="280" width="40" height="40" as="geometry" />
        </mxCell>
        <mxCell id="MjjTUTkJ0xS1mPN5Bs5z-75" value="" style="rounded=0;whiteSpace=wrap;html=1;" parent="1" vertex="1">
          <mxGeometry x="1000" y="280" width="40" height="40" as="geometry" />
        </mxCell>
        <mxCell id="MjjTUTkJ0xS1mPN5Bs5z-76" value="" style="rounded=0;whiteSpace=wrap;html=1;" parent="1" vertex="1">
          <mxGeometry x="1040" y="280" width="40" height="40" as="geometry" />
        </mxCell>
        <mxCell id="MjjTUTkJ0xS1mPN5Bs5z-78" style="edgeStyle=orthogonalEdgeStyle;rounded=0;orthogonalLoop=1;jettySize=auto;html=1;exitX=0;exitY=1;exitDx=0;exitDy=0;entryX=0;entryY=0;entryDx=0;entryDy=0;" parent="1" target="MjjTUTkJ0xS1mPN5Bs5z-84" edge="1">
          <mxGeometry relative="1" as="geometry">
            <mxPoint x="80" y="320" as="sourcePoint" />
          </mxGeometry>
        </mxCell>
        <mxCell id="MjjTUTkJ0xS1mPN5Bs5z-79" style="edgeStyle=orthogonalEdgeStyle;rounded=0;orthogonalLoop=1;jettySize=auto;html=1;exitX=0;exitY=1;exitDx=0;exitDy=0;entryX=0;entryY=0;entryDx=0;entryDy=0;" parent="1" target="MjjTUTkJ0xS1mPN5Bs5z-87" edge="1">
          <mxGeometry relative="1" as="geometry">
            <mxPoint x="200" y="320" as="sourcePoint" />
          </mxGeometry>
        </mxCell>
        <mxCell id="MjjTUTkJ0xS1mPN5Bs5z-80" style="edgeStyle=orthogonalEdgeStyle;rounded=0;orthogonalLoop=1;jettySize=auto;html=1;exitX=1;exitY=1;exitDx=0;exitDy=0;entryX=0;entryY=0;entryDx=0;entryDy=0;" parent="1" target="MjjTUTkJ0xS1mPN5Bs5z-89" edge="1">
          <mxGeometry relative="1" as="geometry">
            <mxPoint x="360" y="320" as="sourcePoint" />
          </mxGeometry>
        </mxCell>
        <mxCell id="MjjTUTkJ0xS1mPN5Bs5z-81" style="edgeStyle=orthogonalEdgeStyle;rounded=0;orthogonalLoop=1;jettySize=auto;html=1;exitX=0;exitY=1;exitDx=0;exitDy=0;entryX=0;entryY=0;entryDx=0;entryDy=0;" parent="1" target="MjjTUTkJ0xS1mPN5Bs5z-91" edge="1">
          <mxGeometry relative="1" as="geometry">
            <mxPoint x="480" y="320" as="sourcePoint" />
          </mxGeometry>
        </mxCell>
        <mxCell id="MjjTUTkJ0xS1mPN5Bs5z-82" value="" style="rounded=0;whiteSpace=wrap;html=1;" parent="1" vertex="1">
          <mxGeometry x="40" y="360" width="40" height="40" as="geometry" />
        </mxCell>
        <mxCell id="MjjTUTkJ0xS1mPN5Bs5z-83" style="edgeStyle=orthogonalEdgeStyle;rounded=0;orthogonalLoop=1;jettySize=auto;html=1;exitX=0;exitY=1;exitDx=0;exitDy=0;entryX=0;entryY=0.5;entryDx=0;entryDy=0;" parent="1" source="MjjTUTkJ0xS1mPN5Bs5z-84" target="MjjTUTkJ0xS1mPN5Bs5z-88" edge="1">
          <mxGeometry relative="1" as="geometry" />
        </mxCell>
        <mxCell id="MjjTUTkJ0xS1mPN5Bs5z-84" value="" style="rounded=0;whiteSpace=wrap;html=1;" parent="1" vertex="1">
          <mxGeometry x="80" y="360" width="40" height="40" as="geometry" />
        </mxCell>
        <mxCell id="MjjTUTkJ0xS1mPN5Bs5z-85" value="" style="rounded=0;whiteSpace=wrap;html=1;" parent="1" vertex="1">
          <mxGeometry x="160" y="360" width="40" height="40" as="geometry" />
        </mxCell>
        <mxCell id="MjjTUTkJ0xS1mPN5Bs5z-86" style="edgeStyle=orthogonalEdgeStyle;rounded=0;orthogonalLoop=1;jettySize=auto;html=1;" parent="1" source="MjjTUTkJ0xS1mPN5Bs5z-87" edge="1">
          <mxGeometry relative="1" as="geometry">
            <mxPoint x="480" y="380" as="targetPoint" />
          </mxGeometry>
        </mxCell>
        <mxCell id="MjjTUTkJ0xS1mPN5Bs5z-87" value="" style="rounded=0;whiteSpace=wrap;html=1;" parent="1" vertex="1">
          <mxGeometry x="200" y="360" width="40" height="40" as="geometry" />
        </mxCell>
        <mxCell id="MjjTUTkJ0xS1mPN5Bs5z-88" value="" style="rounded=0;whiteSpace=wrap;html=1;" parent="1" vertex="1">
          <mxGeometry x="320" y="440" width="40" height="40" as="geometry" />
        </mxCell>
        <mxCell id="MjjTUTkJ0xS1mPN5Bs5z-89" value="" style="rounded=0;whiteSpace=wrap;html=1;" parent="1" vertex="1">
          <mxGeometry x="360" y="440" width="40" height="40" as="geometry" />
        </mxCell>
        <mxCell id="MjjTUTkJ0xS1mPN5Bs5z-90" value="" style="rounded=0;whiteSpace=wrap;html=1;" parent="1" vertex="1">
          <mxGeometry x="440" y="440" width="40" height="40" as="geometry" />
        </mxCell>
        <mxCell id="MjjTUTkJ0xS1mPN5Bs5z-91" value="" style="rounded=0;whiteSpace=wrap;html=1;" parent="1" vertex="1">
          <mxGeometry x="480" y="440" width="40" height="40" as="geometry" />
        </mxCell>
        <mxCell id="MjjTUTkJ0xS1mPN5Bs5z-92" style="edgeStyle=orthogonalEdgeStyle;rounded=0;orthogonalLoop=1;jettySize=auto;html=1;exitX=0;exitY=1;exitDx=0;exitDy=0;entryX=0;entryY=0;entryDx=0;entryDy=0;" parent="1" target="MjjTUTkJ0xS1mPN5Bs5z-98" edge="1">
          <mxGeometry relative="1" as="geometry">
            <mxPoint x="640" y="320" as="sourcePoint" />
          </mxGeometry>
        </mxCell>
        <mxCell id="MjjTUTkJ0xS1mPN5Bs5z-93" style="edgeStyle=orthogonalEdgeStyle;rounded=0;orthogonalLoop=1;jettySize=auto;html=1;exitX=0;exitY=1;exitDx=0;exitDy=0;entryX=0;entryY=0;entryDx=0;entryDy=0;" parent="1" target="MjjTUTkJ0xS1mPN5Bs5z-101" edge="1">
          <mxGeometry relative="1" as="geometry">
            <mxPoint x="760" y="320" as="sourcePoint" />
          </mxGeometry>
        </mxCell>
        <mxCell id="MjjTUTkJ0xS1mPN5Bs5z-94" style="edgeStyle=orthogonalEdgeStyle;rounded=0;orthogonalLoop=1;jettySize=auto;html=1;exitX=1;exitY=1;exitDx=0;exitDy=0;entryX=0;entryY=0;entryDx=0;entryDy=0;" parent="1" target="MjjTUTkJ0xS1mPN5Bs5z-103" edge="1">
          <mxGeometry relative="1" as="geometry">
            <mxPoint x="920" y="320" as="sourcePoint" />
          </mxGeometry>
        </mxCell>
        <mxCell id="MjjTUTkJ0xS1mPN5Bs5z-95" style="edgeStyle=orthogonalEdgeStyle;rounded=0;orthogonalLoop=1;jettySize=auto;html=1;exitX=0;exitY=1;exitDx=0;exitDy=0;entryX=0;entryY=0;entryDx=0;entryDy=0;" parent="1" target="MjjTUTkJ0xS1mPN5Bs5z-105" edge="1">
          <mxGeometry relative="1" as="geometry">
            <mxPoint x="1040" y="320" as="sourcePoint" />
          </mxGeometry>
        </mxCell>
        <mxCell id="MjjTUTkJ0xS1mPN5Bs5z-96" value="" style="rounded=0;whiteSpace=wrap;html=1;" parent="1" vertex="1">
          <mxGeometry x="600" y="360" width="40" height="40" as="geometry" />
        </mxCell>
        <mxCell id="MjjTUTkJ0xS1mPN5Bs5z-97" style="edgeStyle=orthogonalEdgeStyle;rounded=0;orthogonalLoop=1;jettySize=auto;html=1;exitX=0;exitY=1;exitDx=0;exitDy=0;entryX=0;entryY=0.5;entryDx=0;entryDy=0;" parent="1" source="MjjTUTkJ0xS1mPN5Bs5z-98" target="MjjTUTkJ0xS1mPN5Bs5z-102" edge="1">
          <mxGeometry relative="1" as="geometry" />
        </mxCell>
        <mxCell id="MjjTUTkJ0xS1mPN5Bs5z-98" value="" style="rounded=0;whiteSpace=wrap;html=1;" parent="1" vertex="1">
          <mxGeometry x="640" y="360" width="40" height="40" as="geometry" />
        </mxCell>
        <mxCell id="MjjTUTkJ0xS1mPN5Bs5z-99" value="" style="rounded=0;whiteSpace=wrap;html=1;" parent="1" vertex="1">
          <mxGeometry x="720" y="360" width="40" height="40" as="geometry" />
        </mxCell>
        <mxCell id="MjjTUTkJ0xS1mPN5Bs5z-100" style="edgeStyle=orthogonalEdgeStyle;rounded=0;orthogonalLoop=1;jettySize=auto;html=1;" parent="1" source="MjjTUTkJ0xS1mPN5Bs5z-101" edge="1">
          <mxGeometry relative="1" as="geometry">
            <mxPoint x="1040" y="380" as="targetPoint" />
          </mxGeometry>
        </mxCell>
        <mxCell id="MjjTUTkJ0xS1mPN5Bs5z-101" value="5" style="rounded=0;whiteSpace=wrap;html=1;fillColor=#ffcccc;strokeColor=#36393d;" parent="1" vertex="1">
          <mxGeometry x="760" y="360" width="40" height="40" as="geometry" />
        </mxCell>
        <mxCell id="MjjTUTkJ0xS1mPN5Bs5z-102" value="" style="rounded=0;whiteSpace=wrap;html=1;" parent="1" vertex="1">
          <mxGeometry x="880" y="440" width="40" height="40" as="geometry" />
        </mxCell>
        <mxCell id="MjjTUTkJ0xS1mPN5Bs5z-103" value="" style="rounded=0;whiteSpace=wrap;html=1;" parent="1" vertex="1">
          <mxGeometry x="920" y="440" width="40" height="40" as="geometry" />
        </mxCell>
        <mxCell id="MjjTUTkJ0xS1mPN5Bs5z-104" value="" style="rounded=0;whiteSpace=wrap;html=1;" parent="1" vertex="1">
          <mxGeometry x="1000" y="440" width="40" height="40" as="geometry" />
        </mxCell>
        <mxCell id="MjjTUTkJ0xS1mPN5Bs5z-105" value="5" style="rounded=0;whiteSpace=wrap;html=1;fillColor=#ffcccc;strokeColor=#36393d;" parent="1" vertex="1">
          <mxGeometry x="1040" y="440" width="40" height="40" as="geometry" />
        </mxCell>
        <mxCell id="MjjTUTkJ0xS1mPN5Bs5z-106" value="" style="rounded=0;whiteSpace=wrap;html=1;" parent="1" vertex="1">
          <mxGeometry x="40" y="520" width="40" height="40" as="geometry" />
        </mxCell>
        <mxCell id="MjjTUTkJ0xS1mPN5Bs5z-107" value="" style="rounded=0;whiteSpace=wrap;html=1;" parent="1" vertex="1">
          <mxGeometry x="80" y="520" width="40" height="40" as="geometry" />
        </mxCell>
        <mxCell id="MjjTUTkJ0xS1mPN5Bs5z-108" value="" style="rounded=0;whiteSpace=wrap;html=1;" parent="1" vertex="1">
          <mxGeometry x="160" y="520" width="40" height="40" as="geometry" />
        </mxCell>
        <mxCell id="MjjTUTkJ0xS1mPN5Bs5z-109" value="5" style="rounded=0;whiteSpace=wrap;html=1;fillColor=#ffcccc;strokeColor=#36393d;" parent="1" vertex="1">
          <mxGeometry x="200" y="520" width="40" height="40" as="geometry" />
        </mxCell>
        <mxCell id="MjjTUTkJ0xS1mPN5Bs5z-110" value="a1" style="rounded=0;whiteSpace=wrap;html=1;fillColor=#ffcccc;strokeColor=#36393d;" parent="1" vertex="1">
          <mxGeometry x="320" y="520" width="40" height="40" as="geometry" />
        </mxCell>
        <mxCell id="MjjTUTkJ0xS1mPN5Bs5z-111" value="b1" style="rounded=0;whiteSpace=wrap;html=1;fillColor=#ffcccc;strokeColor=#36393d;" parent="1" vertex="1">
          <mxGeometry x="360" y="520" width="40" height="40" as="geometry" />
        </mxCell>
        <mxCell id="MjjTUTkJ0xS1mPN5Bs5z-112" value="" style="rounded=0;whiteSpace=wrap;html=1;" parent="1" vertex="1">
          <mxGeometry x="440" y="520" width="40" height="40" as="geometry" />
        </mxCell>
        <mxCell id="MjjTUTkJ0xS1mPN5Bs5z-113" value="" style="rounded=0;whiteSpace=wrap;html=1;" parent="1" vertex="1">
          <mxGeometry x="480" y="520" width="40" height="40" as="geometry" />
        </mxCell>
        <mxCell id="MjjTUTkJ0xS1mPN5Bs5z-114" value="" style="rounded=0;whiteSpace=wrap;html=1;" parent="1" vertex="1">
          <mxGeometry x="600" y="520" width="40" height="40" as="geometry" />
        </mxCell>
        <mxCell id="MjjTUTkJ0xS1mPN5Bs5z-115" value="" style="rounded=0;whiteSpace=wrap;html=1;" parent="1" vertex="1">
          <mxGeometry x="640" y="520" width="40" height="40" as="geometry" />
        </mxCell>
        <mxCell id="MjjTUTkJ0xS1mPN5Bs5z-116" value="" style="rounded=0;whiteSpace=wrap;html=1;" parent="1" vertex="1">
          <mxGeometry x="720" y="520" width="40" height="40" as="geometry" />
        </mxCell>
        <mxCell id="MjjTUTkJ0xS1mPN5Bs5z-117" value="" style="rounded=0;whiteSpace=wrap;html=1;" parent="1" vertex="1">
          <mxGeometry x="760" y="520" width="40" height="40" as="geometry" />
        </mxCell>
        <mxCell id="MjjTUTkJ0xS1mPN5Bs5z-118" value="" style="rounded=0;whiteSpace=wrap;html=1;" parent="1" vertex="1">
          <mxGeometry x="880" y="520" width="40" height="40" as="geometry" />
        </mxCell>
        <mxCell id="MjjTUTkJ0xS1mPN5Bs5z-119" value="" style="rounded=0;whiteSpace=wrap;html=1;" parent="1" vertex="1">
          <mxGeometry x="920" y="520" width="40" height="40" as="geometry" />
        </mxCell>
        <mxCell id="MjjTUTkJ0xS1mPN5Bs5z-120" value="c1" style="rounded=0;whiteSpace=wrap;html=1;fillColor=#ffcccc;strokeColor=#36393d;" parent="1" vertex="1">
          <mxGeometry x="1000" y="520" width="40" height="40" as="geometry" />
        </mxCell>
        <mxCell id="MjjTUTkJ0xS1mPN5Bs5z-121" value="d1" style="rounded=0;whiteSpace=wrap;html=1;fillColor=#ffcccc;strokeColor=#36393d;" parent="1" vertex="1">
          <mxGeometry x="1040" y="520" width="40" height="40" as="geometry" />
        </mxCell>
        <mxCell id="MjjTUTkJ0xS1mPN5Bs5z-150" style="edgeStyle=orthogonalEdgeStyle;rounded=0;orthogonalLoop=1;jettySize=auto;html=1;exitX=0;exitY=1;exitDx=0;exitDy=0;entryX=0;entryY=0;entryDx=0;entryDy=0;" parent="1" target="MjjTUTkJ0xS1mPN5Bs5z-156" edge="1">
          <mxGeometry relative="1" as="geometry">
            <mxPoint x="80" y="560" as="sourcePoint" />
          </mxGeometry>
        </mxCell>
        <mxCell id="MjjTUTkJ0xS1mPN5Bs5z-151" style="edgeStyle=orthogonalEdgeStyle;rounded=0;orthogonalLoop=1;jettySize=auto;html=1;exitX=0;exitY=1;exitDx=0;exitDy=0;entryX=0;entryY=0;entryDx=0;entryDy=0;" parent="1" target="MjjTUTkJ0xS1mPN5Bs5z-159" edge="1">
          <mxGeometry relative="1" as="geometry">
            <mxPoint x="200" y="560" as="sourcePoint" />
          </mxGeometry>
        </mxCell>
        <mxCell id="MjjTUTkJ0xS1mPN5Bs5z-152" style="edgeStyle=orthogonalEdgeStyle;rounded=0;orthogonalLoop=1;jettySize=auto;html=1;exitX=1;exitY=1;exitDx=0;exitDy=0;entryX=0;entryY=0;entryDx=0;entryDy=0;" parent="1" target="MjjTUTkJ0xS1mPN5Bs5z-161" edge="1">
          <mxGeometry relative="1" as="geometry">
            <mxPoint x="360" y="560" as="sourcePoint" />
          </mxGeometry>
        </mxCell>
        <mxCell id="MjjTUTkJ0xS1mPN5Bs5z-153" style="edgeStyle=orthogonalEdgeStyle;rounded=0;orthogonalLoop=1;jettySize=auto;html=1;exitX=0;exitY=1;exitDx=0;exitDy=0;entryX=0;entryY=0;entryDx=0;entryDy=0;" parent="1" target="MjjTUTkJ0xS1mPN5Bs5z-163" edge="1">
          <mxGeometry relative="1" as="geometry">
            <mxPoint x="480" y="560" as="sourcePoint" />
          </mxGeometry>
        </mxCell>
        <mxCell id="MjjTUTkJ0xS1mPN5Bs5z-154" value="a2" style="rounded=0;whiteSpace=wrap;html=1;fillColor=#ffcccc;strokeColor=#36393d;" parent="1" vertex="1">
          <mxGeometry x="40" y="600" width="40" height="40" as="geometry" />
        </mxCell>
        <mxCell id="MjjTUTkJ0xS1mPN5Bs5z-155" style="edgeStyle=orthogonalEdgeStyle;rounded=0;orthogonalLoop=1;jettySize=auto;html=1;exitX=0;exitY=1;exitDx=0;exitDy=0;entryX=0;entryY=0.5;entryDx=0;entryDy=0;" parent="1" source="MjjTUTkJ0xS1mPN5Bs5z-156" target="MjjTUTkJ0xS1mPN5Bs5z-160" edge="1">
          <mxGeometry relative="1" as="geometry" />
        </mxCell>
        <mxCell id="MjjTUTkJ0xS1mPN5Bs5z-156" value="5" style="rounded=0;whiteSpace=wrap;html=1;fillColor=#ffcccc;strokeColor=#36393d;" parent="1" vertex="1">
          <mxGeometry x="80" y="600" width="40" height="40" as="geometry" />
        </mxCell>
        <mxCell id="MjjTUTkJ0xS1mPN5Bs5z-157" value="c2" style="rounded=0;whiteSpace=wrap;html=1;fillColor=#ffcccc;strokeColor=#36393d;" parent="1" vertex="1">
          <mxGeometry x="160" y="600" width="40" height="40" as="geometry" />
        </mxCell>
        <mxCell id="MjjTUTkJ0xS1mPN5Bs5z-158" style="edgeStyle=orthogonalEdgeStyle;rounded=0;orthogonalLoop=1;jettySize=auto;html=1;" parent="1" source="MjjTUTkJ0xS1mPN5Bs5z-159" edge="1">
          <mxGeometry relative="1" as="geometry">
            <mxPoint x="480" y="620" as="targetPoint" />
          </mxGeometry>
        </mxCell>
        <mxCell id="MjjTUTkJ0xS1mPN5Bs5z-159" value="d2" style="rounded=0;whiteSpace=wrap;html=1;fillColor=#ffcccc;strokeColor=#36393d;" parent="1" vertex="1">
          <mxGeometry x="200" y="600" width="40" height="40" as="geometry" />
        </mxCell>
        <mxCell id="MjjTUTkJ0xS1mPN5Bs5z-160" value="a1+a2" style="rounded=0;whiteSpace=wrap;html=1;fillColor=#ffcccc;strokeColor=#36393d;" parent="1" vertex="1">
          <mxGeometry x="320" y="680" width="40" height="40" as="geometry" />
        </mxCell>
        <mxCell id="MjjTUTkJ0xS1mPN5Bs5z-161" value="b1+5" style="rounded=0;whiteSpace=wrap;html=1;fillColor=#ffcccc;strokeColor=#36393d;" parent="1" vertex="1">
          <mxGeometry x="360" y="680" width="40" height="40" as="geometry" />
        </mxCell>
        <mxCell id="MjjTUTkJ0xS1mPN5Bs5z-162" value="c2" style="rounded=0;whiteSpace=wrap;html=1;fillColor=#ffcccc;strokeColor=#36393d;" parent="1" vertex="1">
          <mxGeometry x="440" y="680" width="40" height="40" as="geometry" />
        </mxCell>
        <mxCell id="MjjTUTkJ0xS1mPN5Bs5z-163" value="d2" style="rounded=0;whiteSpace=wrap;html=1;fillColor=#ffcccc;strokeColor=#36393d;" parent="1" vertex="1">
          <mxGeometry x="480" y="680" width="40" height="40" as="geometry" />
        </mxCell>
        <mxCell id="MjjTUTkJ0xS1mPN5Bs5z-164" style="edgeStyle=orthogonalEdgeStyle;rounded=0;orthogonalLoop=1;jettySize=auto;html=1;exitX=0;exitY=1;exitDx=0;exitDy=0;entryX=0;entryY=0;entryDx=0;entryDy=0;" parent="1" target="MjjTUTkJ0xS1mPN5Bs5z-170" edge="1">
          <mxGeometry relative="1" as="geometry">
            <mxPoint x="640" y="560" as="sourcePoint" />
          </mxGeometry>
        </mxCell>
        <mxCell id="MjjTUTkJ0xS1mPN5Bs5z-165" style="edgeStyle=orthogonalEdgeStyle;rounded=0;orthogonalLoop=1;jettySize=auto;html=1;exitX=0;exitY=1;exitDx=0;exitDy=0;entryX=0;entryY=0;entryDx=0;entryDy=0;" parent="1" target="MjjTUTkJ0xS1mPN5Bs5z-173" edge="1">
          <mxGeometry relative="1" as="geometry">
            <mxPoint x="760" y="560" as="sourcePoint" />
          </mxGeometry>
        </mxCell>
        <mxCell id="MjjTUTkJ0xS1mPN5Bs5z-166" style="edgeStyle=orthogonalEdgeStyle;rounded=0;orthogonalLoop=1;jettySize=auto;html=1;exitX=1;exitY=1;exitDx=0;exitDy=0;entryX=0;entryY=0;entryDx=0;entryDy=0;" parent="1" target="MjjTUTkJ0xS1mPN5Bs5z-175" edge="1">
          <mxGeometry relative="1" as="geometry">
            <mxPoint x="920" y="560" as="sourcePoint" />
          </mxGeometry>
        </mxCell>
        <mxCell id="MjjTUTkJ0xS1mPN5Bs5z-167" style="edgeStyle=orthogonalEdgeStyle;rounded=0;orthogonalLoop=1;jettySize=auto;html=1;exitX=0;exitY=1;exitDx=0;exitDy=0;entryX=0;entryY=0;entryDx=0;entryDy=0;" parent="1" target="MjjTUTkJ0xS1mPN5Bs5z-177" edge="1">
          <mxGeometry relative="1" as="geometry">
            <mxPoint x="1040" y="560" as="sourcePoint" />
          </mxGeometry>
        </mxCell>
        <mxCell id="MjjTUTkJ0xS1mPN5Bs5z-168" value="" style="rounded=0;whiteSpace=wrap;html=1;" parent="1" vertex="1">
          <mxGeometry x="600" y="600" width="40" height="40" as="geometry" />
        </mxCell>
        <mxCell id="MjjTUTkJ0xS1mPN5Bs5z-169" style="edgeStyle=orthogonalEdgeStyle;rounded=0;orthogonalLoop=1;jettySize=auto;html=1;exitX=0;exitY=1;exitDx=0;exitDy=0;entryX=0;entryY=0.5;entryDx=0;entryDy=0;" parent="1" source="MjjTUTkJ0xS1mPN5Bs5z-170" target="MjjTUTkJ0xS1mPN5Bs5z-174" edge="1">
          <mxGeometry relative="1" as="geometry" />
        </mxCell>
        <mxCell id="MjjTUTkJ0xS1mPN5Bs5z-170" value="" style="rounded=0;whiteSpace=wrap;html=1;" parent="1" vertex="1">
          <mxGeometry x="640" y="600" width="40" height="40" as="geometry" />
        </mxCell>
        <mxCell id="MjjTUTkJ0xS1mPN5Bs5z-171" value="" style="rounded=0;whiteSpace=wrap;html=1;" parent="1" vertex="1">
          <mxGeometry x="720" y="600" width="40" height="40" as="geometry" />
        </mxCell>
        <mxCell id="MjjTUTkJ0xS1mPN5Bs5z-172" style="edgeStyle=orthogonalEdgeStyle;rounded=0;orthogonalLoop=1;jettySize=auto;html=1;" parent="1" source="MjjTUTkJ0xS1mPN5Bs5z-173" edge="1">
          <mxGeometry relative="1" as="geometry">
            <mxPoint x="1040" y="620" as="targetPoint" />
          </mxGeometry>
        </mxCell>
        <mxCell id="MjjTUTkJ0xS1mPN5Bs5z-173" value="" style="rounded=0;whiteSpace=wrap;html=1;" parent="1" vertex="1">
          <mxGeometry x="760" y="600" width="40" height="40" as="geometry" />
        </mxCell>
        <mxCell id="MjjTUTkJ0xS1mPN5Bs5z-174" value="" style="rounded=0;whiteSpace=wrap;html=1;" parent="1" vertex="1">
          <mxGeometry x="880" y="680" width="40" height="40" as="geometry" />
        </mxCell>
        <mxCell id="MjjTUTkJ0xS1mPN5Bs5z-175" value="" style="rounded=0;whiteSpace=wrap;html=1;" parent="1" vertex="1">
          <mxGeometry x="920" y="680" width="40" height="40" as="geometry" />
        </mxCell>
        <mxCell id="MjjTUTkJ0xS1mPN5Bs5z-176" value="c1" style="rounded=0;whiteSpace=wrap;html=1;fillColor=#ffcccc;strokeColor=#36393d;" parent="1" vertex="1">
          <mxGeometry x="1000" y="680" width="40" height="40" as="geometry" />
        </mxCell>
        <mxCell id="MjjTUTkJ0xS1mPN5Bs5z-177" value="d1" style="rounded=0;whiteSpace=wrap;html=1;fillColor=#ffcccc;strokeColor=#36393d;" parent="1" vertex="1">
          <mxGeometry x="1040" y="680" width="40" height="40" as="geometry" />
        </mxCell>
        <mxCell id="MjjTUTkJ0xS1mPN5Bs5z-178" value="a1+a2" style="rounded=0;whiteSpace=wrap;html=1;fillColor=#ffcccc;strokeColor=#36393d;" parent="1" vertex="1">
          <mxGeometry x="40" y="760" width="40" height="40" as="geometry" />
        </mxCell>
        <mxCell id="MjjTUTkJ0xS1mPN5Bs5z-179" value="b1+5" style="rounded=0;whiteSpace=wrap;html=1;fillColor=#ffcccc;strokeColor=#36393d;" parent="1" vertex="1">
          <mxGeometry x="80" y="760" width="40" height="40" as="geometry" />
        </mxCell>
        <mxCell id="MjjTUTkJ0xS1mPN5Bs5z-180" value="c1" style="rounded=0;whiteSpace=wrap;html=1;fillColor=#ffcccc;strokeColor=#36393d;" parent="1" vertex="1">
          <mxGeometry x="160" y="760" width="40" height="40" as="geometry" />
        </mxCell>
        <mxCell id="MjjTUTkJ0xS1mPN5Bs5z-181" value="d1" style="rounded=0;whiteSpace=wrap;html=1;fillColor=#ffcccc;strokeColor=#36393d;" parent="1" vertex="1">
          <mxGeometry x="200" y="760" width="40" height="40" as="geometry" />
        </mxCell>
        <mxCell id="MjjTUTkJ0xS1mPN5Bs5z-182" value="" style="rounded=0;whiteSpace=wrap;html=1;" parent="1" vertex="1">
          <mxGeometry x="320" y="760" width="40" height="40" as="geometry" />
        </mxCell>
        <mxCell id="MjjTUTkJ0xS1mPN5Bs5z-183" value="" style="rounded=0;whiteSpace=wrap;html=1;" parent="1" vertex="1">
          <mxGeometry x="360" y="760" width="40" height="40" as="geometry" />
        </mxCell>
        <mxCell id="MjjTUTkJ0xS1mPN5Bs5z-184" value="" style="rounded=0;whiteSpace=wrap;html=1;" parent="1" vertex="1">
          <mxGeometry x="440" y="760" width="40" height="40" as="geometry" />
        </mxCell>
        <mxCell id="MjjTUTkJ0xS1mPN5Bs5z-185" value="5" style="rounded=0;whiteSpace=wrap;html=1;fillColor=#ffcccc;strokeColor=#36393d;" parent="1" vertex="1">
          <mxGeometry x="480" y="760" width="40" height="40" as="geometry" />
        </mxCell>
        <mxCell id="MjjTUTkJ0xS1mPN5Bs5z-186" value="" style="rounded=0;whiteSpace=wrap;html=1;" parent="1" vertex="1">
          <mxGeometry x="600" y="760" width="40" height="40" as="geometry" />
        </mxCell>
        <mxCell id="MjjTUTkJ0xS1mPN5Bs5z-187" value="" style="rounded=0;whiteSpace=wrap;html=1;" parent="1" vertex="1">
          <mxGeometry x="640" y="760" width="40" height="40" as="geometry" />
        </mxCell>
        <mxCell id="MjjTUTkJ0xS1mPN5Bs5z-188" value="c2" style="rounded=0;whiteSpace=wrap;html=1;fillColor=#ffcccc;strokeColor=#36393d;" parent="1" vertex="1">
          <mxGeometry x="720" y="760" width="40" height="40" as="geometry" />
        </mxCell>
        <mxCell id="MjjTUTkJ0xS1mPN5Bs5z-189" value="d2" style="rounded=0;whiteSpace=wrap;html=1;fillColor=#ffcccc;strokeColor=#36393d;" parent="1" vertex="1">
          <mxGeometry x="760" y="760" width="40" height="40" as="geometry" />
        </mxCell>
        <mxCell id="MjjTUTkJ0xS1mPN5Bs5z-190" value="" style="rounded=0;whiteSpace=wrap;html=1;" parent="1" vertex="1">
          <mxGeometry x="880" y="760" width="40" height="40" as="geometry" />
        </mxCell>
        <mxCell id="MjjTUTkJ0xS1mPN5Bs5z-191" value="" style="rounded=0;whiteSpace=wrap;html=1;" parent="1" vertex="1">
          <mxGeometry x="920" y="760" width="40" height="40" as="geometry" />
        </mxCell>
        <mxCell id="MjjTUTkJ0xS1mPN5Bs5z-192" value="" style="rounded=0;whiteSpace=wrap;html=1;" parent="1" vertex="1">
          <mxGeometry x="1000" y="760" width="40" height="40" as="geometry" />
        </mxCell>
        <mxCell id="MjjTUTkJ0xS1mPN5Bs5z-193" value="" style="rounded=0;whiteSpace=wrap;html=1;" parent="1" vertex="1">
          <mxGeometry x="1040" y="760" width="40" height="40" as="geometry" />
        </mxCell>
        <mxCell id="MjjTUTkJ0xS1mPN5Bs5z-194" style="edgeStyle=orthogonalEdgeStyle;rounded=0;orthogonalLoop=1;jettySize=auto;html=1;exitX=0;exitY=1;exitDx=0;exitDy=0;entryX=0;entryY=0;entryDx=0;entryDy=0;" parent="1" target="MjjTUTkJ0xS1mPN5Bs5z-200" edge="1">
          <mxGeometry relative="1" as="geometry">
            <mxPoint x="80" y="800" as="sourcePoint" />
          </mxGeometry>
        </mxCell>
        <mxCell id="MjjTUTkJ0xS1mPN5Bs5z-195" style="edgeStyle=orthogonalEdgeStyle;rounded=0;orthogonalLoop=1;jettySize=auto;html=1;exitX=0;exitY=1;exitDx=0;exitDy=0;entryX=0;entryY=0;entryDx=0;entryDy=0;" parent="1" target="MjjTUTkJ0xS1mPN5Bs5z-203" edge="1">
          <mxGeometry relative="1" as="geometry">
            <mxPoint x="200" y="800" as="sourcePoint" />
          </mxGeometry>
        </mxCell>
        <mxCell id="MjjTUTkJ0xS1mPN5Bs5z-196" style="edgeStyle=orthogonalEdgeStyle;rounded=0;orthogonalLoop=1;jettySize=auto;html=1;exitX=1;exitY=1;exitDx=0;exitDy=0;entryX=0;entryY=0;entryDx=0;entryDy=0;" parent="1" target="MjjTUTkJ0xS1mPN5Bs5z-205" edge="1">
          <mxGeometry relative="1" as="geometry">
            <mxPoint x="360" y="800" as="sourcePoint" />
          </mxGeometry>
        </mxCell>
        <mxCell id="MjjTUTkJ0xS1mPN5Bs5z-197" style="edgeStyle=orthogonalEdgeStyle;rounded=0;orthogonalLoop=1;jettySize=auto;html=1;exitX=0;exitY=1;exitDx=0;exitDy=0;entryX=0;entryY=0;entryDx=0;entryDy=0;" parent="1" target="MjjTUTkJ0xS1mPN5Bs5z-207" edge="1">
          <mxGeometry relative="1" as="geometry">
            <mxPoint x="480" y="800" as="sourcePoint" />
          </mxGeometry>
        </mxCell>
        <mxCell id="MjjTUTkJ0xS1mPN5Bs5z-198" value="" style="rounded=0;whiteSpace=wrap;html=1;" parent="1" vertex="1">
          <mxGeometry x="40" y="840" width="40" height="40" as="geometry" />
        </mxCell>
        <mxCell id="MjjTUTkJ0xS1mPN5Bs5z-199" style="edgeStyle=orthogonalEdgeStyle;rounded=0;orthogonalLoop=1;jettySize=auto;html=1;exitX=0;exitY=1;exitDx=0;exitDy=0;entryX=0;entryY=0.5;entryDx=0;entryDy=0;" parent="1" source="MjjTUTkJ0xS1mPN5Bs5z-200" target="MjjTUTkJ0xS1mPN5Bs5z-204" edge="1">
          <mxGeometry relative="1" as="geometry" />
        </mxCell>
        <mxCell id="MjjTUTkJ0xS1mPN5Bs5z-200" value="" style="rounded=0;whiteSpace=wrap;html=1;" parent="1" vertex="1">
          <mxGeometry x="80" y="840" width="40" height="40" as="geometry" />
        </mxCell>
        <mxCell id="MjjTUTkJ0xS1mPN5Bs5z-201" value="" style="rounded=0;whiteSpace=wrap;html=1;" parent="1" vertex="1">
          <mxGeometry x="160" y="840" width="40" height="40" as="geometry" />
        </mxCell>
        <mxCell id="MjjTUTkJ0xS1mPN5Bs5z-202" style="edgeStyle=orthogonalEdgeStyle;rounded=0;orthogonalLoop=1;jettySize=auto;html=1;" parent="1" source="MjjTUTkJ0xS1mPN5Bs5z-203" edge="1">
          <mxGeometry relative="1" as="geometry">
            <mxPoint x="480" y="860" as="targetPoint" />
          </mxGeometry>
        </mxCell>
        <mxCell id="MjjTUTkJ0xS1mPN5Bs5z-203" value="5" style="rounded=0;whiteSpace=wrap;html=1;fillColor=#ffcccc;strokeColor=#36393d;" parent="1" vertex="1">
          <mxGeometry x="200" y="840" width="40" height="40" as="geometry" />
        </mxCell>
        <mxCell id="MjjTUTkJ0xS1mPN5Bs5z-204" value="" style="rounded=0;whiteSpace=wrap;html=1;" parent="1" vertex="1">
          <mxGeometry x="320" y="920" width="40" height="40" as="geometry" />
        </mxCell>
        <mxCell id="MjjTUTkJ0xS1mPN5Bs5z-205" value="" style="rounded=0;whiteSpace=wrap;html=1;" parent="1" vertex="1">
          <mxGeometry x="360" y="920" width="40" height="40" as="geometry" />
        </mxCell>
        <mxCell id="MjjTUTkJ0xS1mPN5Bs5z-206" value="" style="rounded=0;whiteSpace=wrap;html=1;" parent="1" vertex="1">
          <mxGeometry x="440" y="920" width="40" height="40" as="geometry" />
        </mxCell>
        <mxCell id="MjjTUTkJ0xS1mPN5Bs5z-207" value="" style="rounded=0;whiteSpace=wrap;html=1;" parent="1" vertex="1">
          <mxGeometry x="480" y="920" width="40" height="40" as="geometry" />
        </mxCell>
        <mxCell id="MjjTUTkJ0xS1mPN5Bs5z-208" style="edgeStyle=orthogonalEdgeStyle;rounded=0;orthogonalLoop=1;jettySize=auto;html=1;exitX=0;exitY=1;exitDx=0;exitDy=0;entryX=0;entryY=0;entryDx=0;entryDy=0;" parent="1" target="MjjTUTkJ0xS1mPN5Bs5z-214" edge="1">
          <mxGeometry relative="1" as="geometry">
            <mxPoint x="640" y="800" as="sourcePoint" />
          </mxGeometry>
        </mxCell>
        <mxCell id="MjjTUTkJ0xS1mPN5Bs5z-209" style="edgeStyle=orthogonalEdgeStyle;rounded=0;orthogonalLoop=1;jettySize=auto;html=1;exitX=0;exitY=1;exitDx=0;exitDy=0;entryX=0;entryY=0;entryDx=0;entryDy=0;" parent="1" target="MjjTUTkJ0xS1mPN5Bs5z-217" edge="1">
          <mxGeometry relative="1" as="geometry">
            <mxPoint x="760" y="800" as="sourcePoint" />
          </mxGeometry>
        </mxCell>
        <mxCell id="MjjTUTkJ0xS1mPN5Bs5z-210" style="edgeStyle=orthogonalEdgeStyle;rounded=0;orthogonalLoop=1;jettySize=auto;html=1;exitX=1;exitY=1;exitDx=0;exitDy=0;entryX=0;entryY=0;entryDx=0;entryDy=0;" parent="1" target="MjjTUTkJ0xS1mPN5Bs5z-219" edge="1">
          <mxGeometry relative="1" as="geometry">
            <mxPoint x="920" y="800" as="sourcePoint" />
          </mxGeometry>
        </mxCell>
        <mxCell id="MjjTUTkJ0xS1mPN5Bs5z-211" style="edgeStyle=orthogonalEdgeStyle;rounded=0;orthogonalLoop=1;jettySize=auto;html=1;exitX=0;exitY=1;exitDx=0;exitDy=0;entryX=0;entryY=0;entryDx=0;entryDy=0;" parent="1" target="MjjTUTkJ0xS1mPN5Bs5z-221" edge="1">
          <mxGeometry relative="1" as="geometry">
            <mxPoint x="1040" y="800" as="sourcePoint" />
          </mxGeometry>
        </mxCell>
        <mxCell id="MjjTUTkJ0xS1mPN5Bs5z-212" value="" style="rounded=0;whiteSpace=wrap;html=1;" parent="1" vertex="1">
          <mxGeometry x="600" y="840" width="40" height="40" as="geometry" />
        </mxCell>
        <mxCell id="MjjTUTkJ0xS1mPN5Bs5z-213" style="edgeStyle=orthogonalEdgeStyle;rounded=0;orthogonalLoop=1;jettySize=auto;html=1;exitX=0;exitY=1;exitDx=0;exitDy=0;entryX=0;entryY=0.5;entryDx=0;entryDy=0;" parent="1" source="MjjTUTkJ0xS1mPN5Bs5z-214" target="MjjTUTkJ0xS1mPN5Bs5z-218" edge="1">
          <mxGeometry relative="1" as="geometry" />
        </mxCell>
        <mxCell id="MjjTUTkJ0xS1mPN5Bs5z-214" value="b3" style="rounded=0;whiteSpace=wrap;html=1;fillColor=#ffcccc;strokeColor=#36393d;" parent="1" vertex="1">
          <mxGeometry x="640" y="840" width="40" height="40" as="geometry" />
        </mxCell>
        <mxCell id="MjjTUTkJ0xS1mPN5Bs5z-215" value="c3" style="rounded=0;whiteSpace=wrap;html=1;fillColor=#ffcccc;strokeColor=#36393d;" parent="1" vertex="1">
          <mxGeometry x="720" y="840" width="40" height="40" as="geometry" />
        </mxCell>
        <mxCell id="MjjTUTkJ0xS1mPN5Bs5z-216" style="edgeStyle=orthogonalEdgeStyle;rounded=0;orthogonalLoop=1;jettySize=auto;html=1;" parent="1" source="MjjTUTkJ0xS1mPN5Bs5z-217" edge="1">
          <mxGeometry relative="1" as="geometry">
            <mxPoint x="1040" y="860" as="targetPoint" />
          </mxGeometry>
        </mxCell>
        <mxCell id="MjjTUTkJ0xS1mPN5Bs5z-217" value="d3" style="rounded=0;whiteSpace=wrap;html=1;fillColor=#ffcccc;strokeColor=#36393d;" parent="1" vertex="1">
          <mxGeometry x="760" y="840" width="40" height="40" as="geometry" />
        </mxCell>
        <mxCell id="MjjTUTkJ0xS1mPN5Bs5z-218" value="" style="rounded=0;whiteSpace=wrap;html=1;" parent="1" vertex="1">
          <mxGeometry x="880" y="920" width="40" height="40" as="geometry" />
        </mxCell>
        <mxCell id="MjjTUTkJ0xS1mPN5Bs5z-219" value="b3" style="rounded=0;whiteSpace=wrap;html=1;fillColor=#ffcccc;strokeColor=#36393d;" parent="1" vertex="1">
          <mxGeometry x="920" y="920" width="40" height="40" as="geometry" />
        </mxCell>
        <mxCell id="MjjTUTkJ0xS1mPN5Bs5z-220" value="c3" style="rounded=0;whiteSpace=wrap;html=1;fillColor=#ffcccc;strokeColor=#36393d;" parent="1" vertex="1">
          <mxGeometry x="1000" y="920" width="40" height="40" as="geometry" />
        </mxCell>
        <mxCell id="MjjTUTkJ0xS1mPN5Bs5z-221" value="d3" style="rounded=0;whiteSpace=wrap;html=1;fillColor=#ffcccc;strokeColor=#36393d;" parent="1" vertex="1">
          <mxGeometry x="1040" y="920" width="40" height="40" as="geometry" />
        </mxCell>
        <mxCell id="MjjTUTkJ0xS1mPN5Bs5z-222" value="" style="rounded=0;whiteSpace=wrap;html=1;" parent="1" vertex="1">
          <mxGeometry x="40" y="1000" width="40" height="40" as="geometry" />
        </mxCell>
        <mxCell id="MjjTUTkJ0xS1mPN5Bs5z-223" value="" style="rounded=0;whiteSpace=wrap;html=1;" parent="1" vertex="1">
          <mxGeometry x="80" y="1000" width="40" height="40" as="geometry" />
        </mxCell>
        <mxCell id="MjjTUTkJ0xS1mPN5Bs5z-224" value="c3" style="rounded=0;whiteSpace=wrap;html=1;fillColor=#ffcccc;strokeColor=#36393d;" parent="1" vertex="1">
          <mxGeometry x="160" y="1000" width="40" height="40" as="geometry" />
        </mxCell>
        <mxCell id="MjjTUTkJ0xS1mPN5Bs5z-225" value="d3" style="rounded=0;whiteSpace=wrap;html=1;fillColor=#ffcccc;strokeColor=#36393d;" parent="1" vertex="1">
          <mxGeometry x="200" y="1000" width="40" height="40" as="geometry" />
        </mxCell>
        <mxCell id="MjjTUTkJ0xS1mPN5Bs5z-226" value="" style="rounded=0;whiteSpace=wrap;html=1;" parent="1" vertex="1">
          <mxGeometry x="320" y="1000" width="40" height="40" as="geometry" />
        </mxCell>
        <mxCell id="MjjTUTkJ0xS1mPN5Bs5z-227" value="" style="rounded=0;whiteSpace=wrap;html=1;" parent="1" vertex="1">
          <mxGeometry x="360" y="1000" width="40" height="40" as="geometry" />
        </mxCell>
        <mxCell id="MjjTUTkJ0xS1mPN5Bs5z-228" value="c1" style="rounded=0;whiteSpace=wrap;html=1;fillColor=#ffcccc;strokeColor=#36393d;" parent="1" vertex="1">
          <mxGeometry x="440" y="1000" width="40" height="40" as="geometry" />
        </mxCell>
        <mxCell id="MjjTUTkJ0xS1mPN5Bs5z-229" value="d1" style="rounded=0;whiteSpace=wrap;html=1;fillColor=#ffcccc;strokeColor=#36393d;" parent="1" vertex="1">
          <mxGeometry x="480" y="1000" width="40" height="40" as="geometry" />
        </mxCell>
        <mxCell id="MjjTUTkJ0xS1mPN5Bs5z-230" value="" style="rounded=0;whiteSpace=wrap;html=1;" parent="1" vertex="1">
          <mxGeometry x="600" y="1000" width="40" height="40" as="geometry" />
        </mxCell>
        <mxCell id="MjjTUTkJ0xS1mPN5Bs5z-231" value="b3" style="rounded=0;whiteSpace=wrap;html=1;fillColor=#ffcccc;strokeColor=#36393d;" parent="1" vertex="1">
          <mxGeometry x="640" y="1000" width="40" height="40" as="geometry" />
        </mxCell>
        <mxCell id="MjjTUTkJ0xS1mPN5Bs5z-232" value="" style="rounded=0;whiteSpace=wrap;html=1;" parent="1" vertex="1">
          <mxGeometry x="720" y="1000" width="40" height="40" as="geometry" />
        </mxCell>
        <mxCell id="MjjTUTkJ0xS1mPN5Bs5z-233" value="" style="rounded=0;whiteSpace=wrap;html=1;" parent="1" vertex="1">
          <mxGeometry x="760" y="1000" width="40" height="40" as="geometry" />
        </mxCell>
        <mxCell id="MjjTUTkJ0xS1mPN5Bs5z-234" value="a1+a2" style="rounded=0;whiteSpace=wrap;html=1;fillColor=#ffcccc;strokeColor=#36393d;" parent="1" vertex="1">
          <mxGeometry x="880" y="1000" width="40" height="40" as="geometry" />
        </mxCell>
        <mxCell id="MjjTUTkJ0xS1mPN5Bs5z-235" value="b1+5" style="rounded=0;whiteSpace=wrap;html=1;fillColor=#ffcccc;strokeColor=#36393d;" parent="1" vertex="1">
          <mxGeometry x="920" y="1000" width="40" height="40" as="geometry" />
        </mxCell>
        <mxCell id="MjjTUTkJ0xS1mPN5Bs5z-236" value="c2" style="rounded=0;whiteSpace=wrap;html=1;fillColor=#ffcccc;strokeColor=#36393d;" parent="1" vertex="1">
          <mxGeometry x="1000" y="1000" width="40" height="40" as="geometry" />
        </mxCell>
        <mxCell id="MjjTUTkJ0xS1mPN5Bs5z-237" value="d2" style="rounded=0;whiteSpace=wrap;html=1;fillColor=#ffcccc;strokeColor=#36393d;" parent="1" vertex="1">
          <mxGeometry x="1040" y="1000" width="40" height="40" as="geometry" />
        </mxCell>
        <mxCell id="kUVh4Fkj0lX19k7FKr_u-1" style="edgeStyle=orthogonalEdgeStyle;rounded=0;orthogonalLoop=1;jettySize=auto;html=1;exitX=0;exitY=1;exitDx=0;exitDy=0;entryX=0;entryY=0;entryDx=0;entryDy=0;" edge="1" parent="1" target="kUVh4Fkj0lX19k7FKr_u-7">
          <mxGeometry relative="1" as="geometry">
            <mxPoint x="80" y="1040" as="sourcePoint" />
          </mxGeometry>
        </mxCell>
        <mxCell id="kUVh4Fkj0lX19k7FKr_u-2" style="edgeStyle=orthogonalEdgeStyle;rounded=0;orthogonalLoop=1;jettySize=auto;html=1;exitX=0;exitY=1;exitDx=0;exitDy=0;entryX=0;entryY=0;entryDx=0;entryDy=0;" edge="1" parent="1" target="kUVh4Fkj0lX19k7FKr_u-10">
          <mxGeometry relative="1" as="geometry">
            <mxPoint x="200" y="1040" as="sourcePoint" />
          </mxGeometry>
        </mxCell>
        <mxCell id="kUVh4Fkj0lX19k7FKr_u-3" style="edgeStyle=orthogonalEdgeStyle;rounded=0;orthogonalLoop=1;jettySize=auto;html=1;exitX=1;exitY=1;exitDx=0;exitDy=0;entryX=0;entryY=0;entryDx=0;entryDy=0;" edge="1" parent="1" target="kUVh4Fkj0lX19k7FKr_u-12">
          <mxGeometry relative="1" as="geometry">
            <mxPoint x="360" y="1040" as="sourcePoint" />
          </mxGeometry>
        </mxCell>
        <mxCell id="kUVh4Fkj0lX19k7FKr_u-4" style="edgeStyle=orthogonalEdgeStyle;rounded=0;orthogonalLoop=1;jettySize=auto;html=1;exitX=0;exitY=1;exitDx=0;exitDy=0;entryX=0;entryY=0;entryDx=0;entryDy=0;" edge="1" parent="1" target="kUVh4Fkj0lX19k7FKr_u-14">
          <mxGeometry relative="1" as="geometry">
            <mxPoint x="480" y="1040" as="sourcePoint" />
          </mxGeometry>
        </mxCell>
        <mxCell id="kUVh4Fkj0lX19k7FKr_u-5" value="" style="rounded=0;whiteSpace=wrap;html=1;" vertex="1" parent="1">
          <mxGeometry x="40" y="1080" width="40" height="40" as="geometry" />
        </mxCell>
        <mxCell id="kUVh4Fkj0lX19k7FKr_u-6" style="edgeStyle=orthogonalEdgeStyle;rounded=0;orthogonalLoop=1;jettySize=auto;html=1;exitX=0;exitY=1;exitDx=0;exitDy=0;entryX=0;entryY=0.5;entryDx=0;entryDy=0;" edge="1" parent="1" source="kUVh4Fkj0lX19k7FKr_u-7" target="kUVh4Fkj0lX19k7FKr_u-11">
          <mxGeometry relative="1" as="geometry" />
        </mxCell>
        <mxCell id="kUVh4Fkj0lX19k7FKr_u-7" value="b4" style="rounded=0;whiteSpace=wrap;html=1;fillColor=#ffcccc;strokeColor=#36393d;" vertex="1" parent="1">
          <mxGeometry x="80" y="1080" width="40" height="40" as="geometry" />
        </mxCell>
        <mxCell id="kUVh4Fkj0lX19k7FKr_u-8" value="c1" style="rounded=0;whiteSpace=wrap;html=1;fillColor=#ffcccc;strokeColor=#36393d;" vertex="1" parent="1">
          <mxGeometry x="160" y="1080" width="40" height="40" as="geometry" />
        </mxCell>
        <mxCell id="kUVh4Fkj0lX19k7FKr_u-9" style="edgeStyle=orthogonalEdgeStyle;rounded=0;orthogonalLoop=1;jettySize=auto;html=1;" edge="1" parent="1" source="kUVh4Fkj0lX19k7FKr_u-10">
          <mxGeometry relative="1" as="geometry">
            <mxPoint x="480" y="1100" as="targetPoint" />
          </mxGeometry>
        </mxCell>
        <mxCell id="kUVh4Fkj0lX19k7FKr_u-10" value="d1" style="rounded=0;whiteSpace=wrap;html=1;fillColor=#ffcccc;strokeColor=#36393d;" vertex="1" parent="1">
          <mxGeometry x="200" y="1080" width="40" height="40" as="geometry" />
        </mxCell>
        <mxCell id="kUVh4Fkj0lX19k7FKr_u-11" value="" style="rounded=0;whiteSpace=wrap;html=1;" vertex="1" parent="1">
          <mxGeometry x="320" y="1160" width="40" height="40" as="geometry" />
        </mxCell>
        <mxCell id="kUVh4Fkj0lX19k7FKr_u-12" value="b4" style="rounded=0;whiteSpace=wrap;html=1;fillColor=#ffcccc;strokeColor=#36393d;" vertex="1" parent="1">
          <mxGeometry x="360" y="1160" width="40" height="40" as="geometry" />
        </mxCell>
        <mxCell id="kUVh4Fkj0lX19k7FKr_u-13" value="" style="rounded=0;whiteSpace=wrap;html=1;" vertex="1" parent="1">
          <mxGeometry x="440" y="1160" width="40" height="40" as="geometry" />
        </mxCell>
        <mxCell id="kUVh4Fkj0lX19k7FKr_u-14" value="" style="rounded=0;whiteSpace=wrap;html=1;" vertex="1" parent="1">
          <mxGeometry x="480" y="1160" width="40" height="40" as="geometry" />
        </mxCell>
        <mxCell id="kUVh4Fkj0lX19k7FKr_u-15" style="edgeStyle=orthogonalEdgeStyle;rounded=0;orthogonalLoop=1;jettySize=auto;html=1;exitX=0;exitY=1;exitDx=0;exitDy=0;entryX=0;entryY=0;entryDx=0;entryDy=0;" edge="1" parent="1" target="kUVh4Fkj0lX19k7FKr_u-21">
          <mxGeometry relative="1" as="geometry">
            <mxPoint x="640" y="1040" as="sourcePoint" />
          </mxGeometry>
        </mxCell>
        <mxCell id="kUVh4Fkj0lX19k7FKr_u-16" style="edgeStyle=orthogonalEdgeStyle;rounded=0;orthogonalLoop=1;jettySize=auto;html=1;exitX=0;exitY=1;exitDx=0;exitDy=0;entryX=0;entryY=0;entryDx=0;entryDy=0;" edge="1" parent="1" target="kUVh4Fkj0lX19k7FKr_u-24">
          <mxGeometry relative="1" as="geometry">
            <mxPoint x="760" y="1040" as="sourcePoint" />
          </mxGeometry>
        </mxCell>
        <mxCell id="kUVh4Fkj0lX19k7FKr_u-17" style="edgeStyle=orthogonalEdgeStyle;rounded=0;orthogonalLoop=1;jettySize=auto;html=1;exitX=1;exitY=1;exitDx=0;exitDy=0;entryX=0;entryY=0;entryDx=0;entryDy=0;" edge="1" parent="1" target="kUVh4Fkj0lX19k7FKr_u-26">
          <mxGeometry relative="1" as="geometry">
            <mxPoint x="920" y="1040" as="sourcePoint" />
          </mxGeometry>
        </mxCell>
        <mxCell id="kUVh4Fkj0lX19k7FKr_u-18" style="edgeStyle=orthogonalEdgeStyle;rounded=0;orthogonalLoop=1;jettySize=auto;html=1;exitX=0;exitY=1;exitDx=0;exitDy=0;entryX=0;entryY=0;entryDx=0;entryDy=0;" edge="1" parent="1" target="kUVh4Fkj0lX19k7FKr_u-28">
          <mxGeometry relative="1" as="geometry">
            <mxPoint x="1040" y="1040" as="sourcePoint" />
          </mxGeometry>
        </mxCell>
        <mxCell id="kUVh4Fkj0lX19k7FKr_u-19" value="a1+a2" style="rounded=0;whiteSpace=wrap;html=1;fillColor=#ffcccc;strokeColor=#36393d;" vertex="1" parent="1">
          <mxGeometry x="600" y="1080" width="40" height="40" as="geometry" />
        </mxCell>
        <mxCell id="kUVh4Fkj0lX19k7FKr_u-20" style="edgeStyle=orthogonalEdgeStyle;rounded=0;orthogonalLoop=1;jettySize=auto;html=1;exitX=0;exitY=1;exitDx=0;exitDy=0;entryX=0;entryY=0.5;entryDx=0;entryDy=0;" edge="1" parent="1" source="kUVh4Fkj0lX19k7FKr_u-21" target="kUVh4Fkj0lX19k7FKr_u-25">
          <mxGeometry relative="1" as="geometry" />
        </mxCell>
        <mxCell id="kUVh4Fkj0lX19k7FKr_u-21" value="b1+5" style="rounded=0;whiteSpace=wrap;html=1;fillColor=#ffcccc;strokeColor=#36393d;" vertex="1" parent="1">
          <mxGeometry x="640" y="1080" width="40" height="40" as="geometry" />
        </mxCell>
        <mxCell id="kUVh4Fkj0lX19k7FKr_u-22" value="c2" style="rounded=0;whiteSpace=wrap;html=1;fillColor=#ffcccc;strokeColor=#36393d;" vertex="1" parent="1">
          <mxGeometry x="720" y="1080" width="40" height="40" as="geometry" />
        </mxCell>
        <mxCell id="kUVh4Fkj0lX19k7FKr_u-23" style="edgeStyle=orthogonalEdgeStyle;rounded=0;orthogonalLoop=1;jettySize=auto;html=1;" edge="1" parent="1" source="kUVh4Fkj0lX19k7FKr_u-24">
          <mxGeometry relative="1" as="geometry">
            <mxPoint x="1040" y="1100" as="targetPoint" />
          </mxGeometry>
        </mxCell>
        <mxCell id="kUVh4Fkj0lX19k7FKr_u-24" value="d4" style="rounded=0;whiteSpace=wrap;html=1;fillColor=#ffcccc;strokeColor=#36393d;" vertex="1" parent="1">
          <mxGeometry x="760" y="1080" width="40" height="40" as="geometry" />
        </mxCell>
        <mxCell id="kUVh4Fkj0lX19k7FKr_u-25" value="" style="rounded=0;whiteSpace=wrap;html=1;" vertex="1" parent="1">
          <mxGeometry x="880" y="1160" width="40" height="40" as="geometry" />
        </mxCell>
        <mxCell id="kUVh4Fkj0lX19k7FKr_u-26" value="" style="rounded=0;whiteSpace=wrap;html=1;" vertex="1" parent="1">
          <mxGeometry x="920" y="1160" width="40" height="40" as="geometry" />
        </mxCell>
        <mxCell id="kUVh4Fkj0lX19k7FKr_u-27" value="" style="rounded=0;whiteSpace=wrap;html=1;" vertex="1" parent="1">
          <mxGeometry x="1000" y="1160" width="40" height="40" as="geometry" />
        </mxCell>
        <mxCell id="kUVh4Fkj0lX19k7FKr_u-28" value="d2+d4" style="rounded=0;whiteSpace=wrap;html=1;fillColor=#ffcccc;strokeColor=#36393d;" vertex="1" parent="1">
          <mxGeometry x="1040" y="1160" width="40" height="40" as="geometry" />
        </mxCell>
        <mxCell id="kUVh4Fkj0lX19k7FKr_u-29" value="" style="rounded=0;whiteSpace=wrap;html=1;" vertex="1" parent="1">
          <mxGeometry x="40" y="1240" width="40" height="40" as="geometry" />
        </mxCell>
        <mxCell id="kUVh4Fkj0lX19k7FKr_u-30" value="b4" style="rounded=0;whiteSpace=wrap;html=1;fillColor=#ffcccc;strokeColor=#36393d;" vertex="1" parent="1">
          <mxGeometry x="80" y="1240" width="40" height="40" as="geometry" />
        </mxCell>
        <mxCell id="kUVh4Fkj0lX19k7FKr_u-31" value="" style="rounded=0;whiteSpace=wrap;html=1;" vertex="1" parent="1">
          <mxGeometry x="160" y="1240" width="40" height="40" as="geometry" />
        </mxCell>
        <mxCell id="kUVh4Fkj0lX19k7FKr_u-32" value="d2+d4" style="rounded=0;whiteSpace=wrap;html=1;fillColor=#ffcccc;strokeColor=#36393d;" vertex="1" parent="1">
          <mxGeometry x="200" y="1240" width="40" height="40" as="geometry" />
        </mxCell>
        <mxCell id="kUVh4Fkj0lX19k7FKr_u-33" value="" style="rounded=0;whiteSpace=wrap;html=1;" vertex="1" parent="1">
          <mxGeometry x="320" y="1240" width="40" height="40" as="geometry" />
        </mxCell>
        <mxCell id="kUVh4Fkj0lX19k7FKr_u-34" value="b3" style="rounded=0;whiteSpace=wrap;html=1;fillColor=#ffcccc;strokeColor=#36393d;" vertex="1" parent="1">
          <mxGeometry x="360" y="1240" width="40" height="40" as="geometry" />
        </mxCell>
        <mxCell id="kUVh4Fkj0lX19k7FKr_u-35" value="c3" style="rounded=0;whiteSpace=wrap;html=1;fillColor=#ffcccc;strokeColor=#36393d;" vertex="1" parent="1">
          <mxGeometry x="440" y="1240" width="40" height="40" as="geometry" />
        </mxCell>
        <mxCell id="kUVh4Fkj0lX19k7FKr_u-36" value="d3" style="rounded=0;whiteSpace=wrap;html=1;fillColor=#ffcccc;strokeColor=#36393d;" vertex="1" parent="1">
          <mxGeometry x="480" y="1240" width="40" height="40" as="geometry" />
        </mxCell>
        <mxCell id="kUVh4Fkj0lX19k7FKr_u-37" value="" style="rounded=0;whiteSpace=wrap;html=1;" vertex="1" parent="1">
          <mxGeometry x="600" y="1240" width="40" height="40" as="geometry" />
        </mxCell>
        <mxCell id="kUVh4Fkj0lX19k7FKr_u-38" value="" style="rounded=0;whiteSpace=wrap;html=1;" vertex="1" parent="1">
          <mxGeometry x="640" y="1240" width="40" height="40" as="geometry" />
        </mxCell>
        <mxCell id="kUVh4Fkj0lX19k7FKr_u-39" value="" style="rounded=0;whiteSpace=wrap;html=1;" vertex="1" parent="1">
          <mxGeometry x="720" y="1240" width="40" height="40" as="geometry" />
        </mxCell>
        <mxCell id="kUVh4Fkj0lX19k7FKr_u-40" value="" style="rounded=0;whiteSpace=wrap;html=1;" vertex="1" parent="1">
          <mxGeometry x="760" y="1240" width="40" height="40" as="geometry" />
        </mxCell>
        <mxCell id="kUVh4Fkj0lX19k7FKr_u-41" value="" style="rounded=0;whiteSpace=wrap;html=1;" vertex="1" parent="1">
          <mxGeometry x="880" y="1240" width="40" height="40" as="geometry" />
        </mxCell>
        <mxCell id="kUVh4Fkj0lX19k7FKr_u-42" value="" style="rounded=0;whiteSpace=wrap;html=1;" vertex="1" parent="1">
          <mxGeometry x="920" y="1240" width="40" height="40" as="geometry" />
        </mxCell>
        <mxCell id="kUVh4Fkj0lX19k7FKr_u-43" value="" style="rounded=0;whiteSpace=wrap;html=1;" vertex="1" parent="1">
          <mxGeometry x="1000" y="1240" width="40" height="40" as="geometry" />
        </mxCell>
        <mxCell id="kUVh4Fkj0lX19k7FKr_u-44" value="" style="rounded=0;whiteSpace=wrap;html=1;" vertex="1" parent="1">
          <mxGeometry x="1040" y="1240" width="40" height="40" as="geometry" />
        </mxCell>
        <mxCell id="kUVh4Fkj0lX19k7FKr_u-45" style="edgeStyle=orthogonalEdgeStyle;rounded=0;orthogonalLoop=1;jettySize=auto;html=1;exitX=0;exitY=1;exitDx=0;exitDy=0;entryX=0;entryY=0;entryDx=0;entryDy=0;" edge="1" parent="1" target="kUVh4Fkj0lX19k7FKr_u-51">
          <mxGeometry relative="1" as="geometry">
            <mxPoint x="80" y="1280" as="sourcePoint" />
          </mxGeometry>
        </mxCell>
        <mxCell id="kUVh4Fkj0lX19k7FKr_u-46" style="edgeStyle=orthogonalEdgeStyle;rounded=0;orthogonalLoop=1;jettySize=auto;html=1;exitX=0;exitY=1;exitDx=0;exitDy=0;entryX=0;entryY=0;entryDx=0;entryDy=0;" edge="1" parent="1" target="kUVh4Fkj0lX19k7FKr_u-54">
          <mxGeometry relative="1" as="geometry">
            <mxPoint x="200" y="1280" as="sourcePoint" />
          </mxGeometry>
        </mxCell>
        <mxCell id="kUVh4Fkj0lX19k7FKr_u-47" style="edgeStyle=orthogonalEdgeStyle;rounded=0;orthogonalLoop=1;jettySize=auto;html=1;exitX=1;exitY=1;exitDx=0;exitDy=0;entryX=0;entryY=0;entryDx=0;entryDy=0;" edge="1" parent="1" target="kUVh4Fkj0lX19k7FKr_u-56">
          <mxGeometry relative="1" as="geometry">
            <mxPoint x="360" y="1280" as="sourcePoint" />
          </mxGeometry>
        </mxCell>
        <mxCell id="kUVh4Fkj0lX19k7FKr_u-48" style="edgeStyle=orthogonalEdgeStyle;rounded=0;orthogonalLoop=1;jettySize=auto;html=1;exitX=0;exitY=1;exitDx=0;exitDy=0;entryX=0;entryY=0;entryDx=0;entryDy=0;" edge="1" parent="1" target="kUVh4Fkj0lX19k7FKr_u-58">
          <mxGeometry relative="1" as="geometry">
            <mxPoint x="480" y="1280" as="sourcePoint" />
          </mxGeometry>
        </mxCell>
        <mxCell id="kUVh4Fkj0lX19k7FKr_u-49" value="" style="rounded=0;whiteSpace=wrap;html=1;" vertex="1" parent="1">
          <mxGeometry x="40" y="1320" width="40" height="40" as="geometry" />
        </mxCell>
        <mxCell id="kUVh4Fkj0lX19k7FKr_u-50" style="edgeStyle=orthogonalEdgeStyle;rounded=0;orthogonalLoop=1;jettySize=auto;html=1;exitX=0;exitY=1;exitDx=0;exitDy=0;entryX=0;entryY=0.5;entryDx=0;entryDy=0;" edge="1" parent="1" source="kUVh4Fkj0lX19k7FKr_u-51" target="kUVh4Fkj0lX19k7FKr_u-55">
          <mxGeometry relative="1" as="geometry" />
        </mxCell>
        <mxCell id="kUVh4Fkj0lX19k7FKr_u-51" value="b3" style="rounded=0;whiteSpace=wrap;html=1;fillColor=#ffcccc;strokeColor=#36393d;" vertex="1" parent="1">
          <mxGeometry x="80" y="1320" width="40" height="40" as="geometry" />
        </mxCell>
        <mxCell id="kUVh4Fkj0lX19k7FKr_u-52" value="c3" style="rounded=0;whiteSpace=wrap;html=1;fillColor=#ffcccc;strokeColor=#36393d;" vertex="1" parent="1">
          <mxGeometry x="160" y="1320" width="40" height="40" as="geometry" />
        </mxCell>
        <mxCell id="kUVh4Fkj0lX19k7FKr_u-53" style="edgeStyle=orthogonalEdgeStyle;rounded=0;orthogonalLoop=1;jettySize=auto;html=1;" edge="1" parent="1" source="kUVh4Fkj0lX19k7FKr_u-54">
          <mxGeometry relative="1" as="geometry">
            <mxPoint x="480" y="1340" as="targetPoint" />
          </mxGeometry>
        </mxCell>
        <mxCell id="kUVh4Fkj0lX19k7FKr_u-54" value="d3" style="rounded=0;whiteSpace=wrap;html=1;fillColor=#ffcccc;strokeColor=#36393d;" vertex="1" parent="1">
          <mxGeometry x="200" y="1320" width="40" height="40" as="geometry" />
        </mxCell>
        <mxCell id="kUVh4Fkj0lX19k7FKr_u-55" value="" style="rounded=0;whiteSpace=wrap;html=1;" vertex="1" parent="1">
          <mxGeometry x="320" y="1400" width="40" height="40" as="geometry" />
        </mxCell>
        <mxCell id="kUVh4Fkj0lX19k7FKr_u-56" value="" style="rounded=0;whiteSpace=wrap;html=1;" vertex="1" parent="1">
          <mxGeometry x="360" y="1400" width="40" height="40" as="geometry" />
        </mxCell>
        <mxCell id="kUVh4Fkj0lX19k7FKr_u-57" value="" style="rounded=0;whiteSpace=wrap;html=1;" vertex="1" parent="1">
          <mxGeometry x="440" y="1400" width="40" height="40" as="geometry" />
        </mxCell>
        <mxCell id="kUVh4Fkj0lX19k7FKr_u-58" value="" style="rounded=0;whiteSpace=wrap;html=1;" vertex="1" parent="1">
          <mxGeometry x="480" y="1400" width="40" height="40" as="geometry" />
        </mxCell>
        <mxCell id="kUVh4Fkj0lX19k7FKr_u-59" style="edgeStyle=orthogonalEdgeStyle;rounded=0;orthogonalLoop=1;jettySize=auto;html=1;exitX=0;exitY=1;exitDx=0;exitDy=0;entryX=0;entryY=0;entryDx=0;entryDy=0;" edge="1" parent="1" target="kUVh4Fkj0lX19k7FKr_u-65">
          <mxGeometry relative="1" as="geometry">
            <mxPoint x="640" y="1280" as="sourcePoint" />
          </mxGeometry>
        </mxCell>
        <mxCell id="kUVh4Fkj0lX19k7FKr_u-60" style="edgeStyle=orthogonalEdgeStyle;rounded=0;orthogonalLoop=1;jettySize=auto;html=1;exitX=0;exitY=1;exitDx=0;exitDy=0;entryX=0;entryY=0;entryDx=0;entryDy=0;" edge="1" parent="1" target="kUVh4Fkj0lX19k7FKr_u-68">
          <mxGeometry relative="1" as="geometry">
            <mxPoint x="760" y="1280" as="sourcePoint" />
          </mxGeometry>
        </mxCell>
        <mxCell id="kUVh4Fkj0lX19k7FKr_u-61" style="edgeStyle=orthogonalEdgeStyle;rounded=0;orthogonalLoop=1;jettySize=auto;html=1;exitX=1;exitY=1;exitDx=0;exitDy=0;entryX=0;entryY=0;entryDx=0;entryDy=0;" edge="1" parent="1" target="kUVh4Fkj0lX19k7FKr_u-70">
          <mxGeometry relative="1" as="geometry">
            <mxPoint x="920" y="1280" as="sourcePoint" />
          </mxGeometry>
        </mxCell>
        <mxCell id="kUVh4Fkj0lX19k7FKr_u-62" style="edgeStyle=orthogonalEdgeStyle;rounded=0;orthogonalLoop=1;jettySize=auto;html=1;exitX=0;exitY=1;exitDx=0;exitDy=0;entryX=0;entryY=0;entryDx=0;entryDy=0;" edge="1" parent="1" target="kUVh4Fkj0lX19k7FKr_u-72">
          <mxGeometry relative="1" as="geometry">
            <mxPoint x="1040" y="1280" as="sourcePoint" />
          </mxGeometry>
        </mxCell>
        <mxCell id="kUVh4Fkj0lX19k7FKr_u-63" value="" style="rounded=0;whiteSpace=wrap;html=1;" vertex="1" parent="1">
          <mxGeometry x="600" y="1320" width="40" height="40" as="geometry" />
        </mxCell>
        <mxCell id="kUVh4Fkj0lX19k7FKr_u-64" style="edgeStyle=orthogonalEdgeStyle;rounded=0;orthogonalLoop=1;jettySize=auto;html=1;exitX=0;exitY=1;exitDx=0;exitDy=0;entryX=0;entryY=0.5;entryDx=0;entryDy=0;" edge="1" parent="1" source="kUVh4Fkj0lX19k7FKr_u-65" target="kUVh4Fkj0lX19k7FKr_u-69">
          <mxGeometry relative="1" as="geometry" />
        </mxCell>
        <mxCell id="kUVh4Fkj0lX19k7FKr_u-65" value="" style="rounded=0;whiteSpace=wrap;html=1;" vertex="1" parent="1">
          <mxGeometry x="640" y="1320" width="40" height="40" as="geometry" />
        </mxCell>
        <mxCell id="kUVh4Fkj0lX19k7FKr_u-66" value="" style="rounded=0;whiteSpace=wrap;html=1;" vertex="1" parent="1">
          <mxGeometry x="720" y="1320" width="40" height="40" as="geometry" />
        </mxCell>
        <mxCell id="kUVh4Fkj0lX19k7FKr_u-67" style="edgeStyle=orthogonalEdgeStyle;rounded=0;orthogonalLoop=1;jettySize=auto;html=1;" edge="1" parent="1" source="kUVh4Fkj0lX19k7FKr_u-68">
          <mxGeometry relative="1" as="geometry">
            <mxPoint x="1040" y="1340" as="targetPoint" />
          </mxGeometry>
        </mxCell>
        <mxCell id="kUVh4Fkj0lX19k7FKr_u-68" value="" style="rounded=0;whiteSpace=wrap;html=1;" vertex="1" parent="1">
          <mxGeometry x="760" y="1320" width="40" height="40" as="geometry" />
        </mxCell>
        <mxCell id="kUVh4Fkj0lX19k7FKr_u-69" value="" style="rounded=0;whiteSpace=wrap;html=1;" vertex="1" parent="1">
          <mxGeometry x="880" y="1400" width="40" height="40" as="geometry" />
        </mxCell>
        <mxCell id="kUVh4Fkj0lX19k7FKr_u-70" value="" style="rounded=0;whiteSpace=wrap;html=1;" vertex="1" parent="1">
          <mxGeometry x="920" y="1400" width="40" height="40" as="geometry" />
        </mxCell>
        <mxCell id="kUVh4Fkj0lX19k7FKr_u-71" value="" style="rounded=0;whiteSpace=wrap;html=1;" vertex="1" parent="1">
          <mxGeometry x="1000" y="1400" width="40" height="40" as="geometry" />
        </mxCell>
        <mxCell id="kUVh4Fkj0lX19k7FKr_u-72" value="" style="rounded=0;whiteSpace=wrap;html=1;" vertex="1" parent="1">
          <mxGeometry x="1040" y="1400" width="40" height="40" as="geometry" />
        </mxCell>
        <mxCell id="kUVh4Fkj0lX19k7FKr_u-73" value="" style="rounded=0;whiteSpace=wrap;html=1;" vertex="1" parent="1">
          <mxGeometry x="40" y="1480" width="40" height="40" as="geometry" />
        </mxCell>
        <mxCell id="kUVh4Fkj0lX19k7FKr_u-74" value="" style="rounded=0;whiteSpace=wrap;html=1;" vertex="1" parent="1">
          <mxGeometry x="80" y="1480" width="40" height="40" as="geometry" />
        </mxCell>
        <mxCell id="kUVh4Fkj0lX19k7FKr_u-75" value="" style="rounded=0;whiteSpace=wrap;html=1;" vertex="1" parent="1">
          <mxGeometry x="160" y="1480" width="40" height="40" as="geometry" />
        </mxCell>
        <mxCell id="kUVh4Fkj0lX19k7FKr_u-76" value="" style="rounded=0;whiteSpace=wrap;html=1;" vertex="1" parent="1">
          <mxGeometry x="200" y="1480" width="40" height="40" as="geometry" />
        </mxCell>
        <mxCell id="kUVh4Fkj0lX19k7FKr_u-77" value="" style="rounded=0;whiteSpace=wrap;html=1;" vertex="1" parent="1">
          <mxGeometry x="320" y="1480" width="40" height="40" as="geometry" />
        </mxCell>
        <mxCell id="kUVh4Fkj0lX19k7FKr_u-78" value="" style="rounded=0;whiteSpace=wrap;html=1;" vertex="1" parent="1">
          <mxGeometry x="360" y="1480" width="40" height="40" as="geometry" />
        </mxCell>
        <mxCell id="kUVh4Fkj0lX19k7FKr_u-79" value="" style="rounded=0;whiteSpace=wrap;html=1;" vertex="1" parent="1">
          <mxGeometry x="440" y="1480" width="40" height="40" as="geometry" />
        </mxCell>
        <mxCell id="kUVh4Fkj0lX19k7FKr_u-80" value="d2+d4" style="rounded=0;whiteSpace=wrap;html=1;fillColor=#ffcccc;strokeColor=#36393d;" vertex="1" parent="1">
          <mxGeometry x="480" y="1480" width="40" height="40" as="geometry" />
        </mxCell>
        <mxCell id="kUVh4Fkj0lX19k7FKr_u-81" value="" style="rounded=0;whiteSpace=wrap;html=1;" vertex="1" parent="1">
          <mxGeometry x="600" y="1480" width="40" height="40" as="geometry" />
        </mxCell>
        <mxCell id="kUVh4Fkj0lX19k7FKr_u-82" value="" style="rounded=0;whiteSpace=wrap;html=1;" vertex="1" parent="1">
          <mxGeometry x="640" y="1480" width="40" height="40" as="geometry" />
        </mxCell>
        <mxCell id="kUVh4Fkj0lX19k7FKr_u-83" value="" style="rounded=0;whiteSpace=wrap;html=1;" vertex="1" parent="1">
          <mxGeometry x="720" y="1480" width="40" height="40" as="geometry" />
        </mxCell>
        <mxCell id="kUVh4Fkj0lX19k7FKr_u-84" value="" style="rounded=0;whiteSpace=wrap;html=1;" vertex="1" parent="1">
          <mxGeometry x="760" y="1480" width="40" height="40" as="geometry" />
        </mxCell>
        <mxCell id="kUVh4Fkj0lX19k7FKr_u-85" value="" style="rounded=0;whiteSpace=wrap;html=1;" vertex="1" parent="1">
          <mxGeometry x="880" y="1480" width="40" height="40" as="geometry" />
        </mxCell>
        <mxCell id="kUVh4Fkj0lX19k7FKr_u-86" value="b4" style="rounded=0;whiteSpace=wrap;html=1;fillColor=#ffcccc;strokeColor=#36393d;" vertex="1" parent="1">
          <mxGeometry x="920" y="1480" width="40" height="40" as="geometry" />
        </mxCell>
        <mxCell id="kUVh4Fkj0lX19k7FKr_u-87" value="" style="rounded=0;whiteSpace=wrap;html=1;" vertex="1" parent="1">
          <mxGeometry x="1000" y="1480" width="40" height="40" as="geometry" />
        </mxCell>
        <mxCell id="kUVh4Fkj0lX19k7FKr_u-88" value="" style="rounded=0;whiteSpace=wrap;html=1;" vertex="1" parent="1">
          <mxGeometry x="1040" y="1480" width="40" height="40" as="geometry" />
        </mxCell>
        <mxCell id="kUVh4Fkj0lX19k7FKr_u-89" style="edgeStyle=orthogonalEdgeStyle;rounded=0;orthogonalLoop=1;jettySize=auto;html=1;exitX=0;exitY=1;exitDx=0;exitDy=0;entryX=0;entryY=0;entryDx=0;entryDy=0;" edge="1" parent="1" target="kUVh4Fkj0lX19k7FKr_u-95">
          <mxGeometry relative="1" as="geometry">
            <mxPoint x="80" y="1520" as="sourcePoint" />
          </mxGeometry>
        </mxCell>
        <mxCell id="kUVh4Fkj0lX19k7FKr_u-90" style="edgeStyle=orthogonalEdgeStyle;rounded=0;orthogonalLoop=1;jettySize=auto;html=1;exitX=0;exitY=1;exitDx=0;exitDy=0;entryX=0;entryY=0;entryDx=0;entryDy=0;" edge="1" parent="1" target="kUVh4Fkj0lX19k7FKr_u-98">
          <mxGeometry relative="1" as="geometry">
            <mxPoint x="200" y="1520" as="sourcePoint" />
          </mxGeometry>
        </mxCell>
        <mxCell id="kUVh4Fkj0lX19k7FKr_u-91" style="edgeStyle=orthogonalEdgeStyle;rounded=0;orthogonalLoop=1;jettySize=auto;html=1;exitX=1;exitY=1;exitDx=0;exitDy=0;entryX=0;entryY=0;entryDx=0;entryDy=0;" edge="1" parent="1" target="kUVh4Fkj0lX19k7FKr_u-100">
          <mxGeometry relative="1" as="geometry">
            <mxPoint x="360" y="1520" as="sourcePoint" />
          </mxGeometry>
        </mxCell>
        <mxCell id="kUVh4Fkj0lX19k7FKr_u-92" style="edgeStyle=orthogonalEdgeStyle;rounded=0;orthogonalLoop=1;jettySize=auto;html=1;exitX=0;exitY=1;exitDx=0;exitDy=0;entryX=0;entryY=0;entryDx=0;entryDy=0;" edge="1" parent="1" target="kUVh4Fkj0lX19k7FKr_u-102">
          <mxGeometry relative="1" as="geometry">
            <mxPoint x="480" y="1520" as="sourcePoint" />
          </mxGeometry>
        </mxCell>
        <mxCell id="kUVh4Fkj0lX19k7FKr_u-93" value="" style="rounded=0;whiteSpace=wrap;html=1;" vertex="1" parent="1">
          <mxGeometry x="40" y="1560" width="40" height="40" as="geometry" />
        </mxCell>
        <mxCell id="kUVh4Fkj0lX19k7FKr_u-94" style="edgeStyle=orthogonalEdgeStyle;rounded=0;orthogonalLoop=1;jettySize=auto;html=1;exitX=0;exitY=1;exitDx=0;exitDy=0;entryX=0;entryY=0.5;entryDx=0;entryDy=0;" edge="1" parent="1" source="kUVh4Fkj0lX19k7FKr_u-95" target="kUVh4Fkj0lX19k7FKr_u-99">
          <mxGeometry relative="1" as="geometry" />
        </mxCell>
        <mxCell id="kUVh4Fkj0lX19k7FKr_u-95" value="" style="rounded=0;whiteSpace=wrap;html=1;" vertex="1" parent="1">
          <mxGeometry x="80" y="1560" width="40" height="40" as="geometry" />
        </mxCell>
        <mxCell id="kUVh4Fkj0lX19k7FKr_u-96" value="" style="rounded=0;whiteSpace=wrap;html=1;" vertex="1" parent="1">
          <mxGeometry x="160" y="1560" width="40" height="40" as="geometry" />
        </mxCell>
        <mxCell id="kUVh4Fkj0lX19k7FKr_u-97" style="edgeStyle=orthogonalEdgeStyle;rounded=0;orthogonalLoop=1;jettySize=auto;html=1;" edge="1" parent="1" source="kUVh4Fkj0lX19k7FKr_u-98">
          <mxGeometry relative="1" as="geometry">
            <mxPoint x="480" y="1580" as="targetPoint" />
          </mxGeometry>
        </mxCell>
        <mxCell id="kUVh4Fkj0lX19k7FKr_u-98" value="" style="rounded=0;whiteSpace=wrap;html=1;" vertex="1" parent="1">
          <mxGeometry x="200" y="1560" width="40" height="40" as="geometry" />
        </mxCell>
        <mxCell id="kUVh4Fkj0lX19k7FKr_u-99" value="" style="rounded=0;whiteSpace=wrap;html=1;" vertex="1" parent="1">
          <mxGeometry x="320" y="1640" width="40" height="40" as="geometry" />
        </mxCell>
        <mxCell id="kUVh4Fkj0lX19k7FKr_u-100" value="" style="rounded=0;whiteSpace=wrap;html=1;" vertex="1" parent="1">
          <mxGeometry x="360" y="1640" width="40" height="40" as="geometry" />
        </mxCell>
        <mxCell id="kUVh4Fkj0lX19k7FKr_u-101" value="" style="rounded=0;whiteSpace=wrap;html=1;" vertex="1" parent="1">
          <mxGeometry x="440" y="1640" width="40" height="40" as="geometry" />
        </mxCell>
        <mxCell id="kUVh4Fkj0lX19k7FKr_u-102" value="d2+d4" style="rounded=0;whiteSpace=wrap;html=1;fillColor=#ffcccc;strokeColor=#36393d;" vertex="1" parent="1">
          <mxGeometry x="480" y="1640" width="40" height="40" as="geometry" />
        </mxCell>
        <mxCell id="kUVh4Fkj0lX19k7FKr_u-103" style="edgeStyle=orthogonalEdgeStyle;rounded=0;orthogonalLoop=1;jettySize=auto;html=1;exitX=0;exitY=1;exitDx=0;exitDy=0;entryX=0;entryY=0;entryDx=0;entryDy=0;" edge="1" parent="1" target="kUVh4Fkj0lX19k7FKr_u-109">
          <mxGeometry relative="1" as="geometry">
            <mxPoint x="640" y="1520" as="sourcePoint" />
          </mxGeometry>
        </mxCell>
        <mxCell id="kUVh4Fkj0lX19k7FKr_u-104" style="edgeStyle=orthogonalEdgeStyle;rounded=0;orthogonalLoop=1;jettySize=auto;html=1;exitX=0;exitY=1;exitDx=0;exitDy=0;entryX=0;entryY=0;entryDx=0;entryDy=0;" edge="1" parent="1" target="kUVh4Fkj0lX19k7FKr_u-112">
          <mxGeometry relative="1" as="geometry">
            <mxPoint x="760" y="1520" as="sourcePoint" />
          </mxGeometry>
        </mxCell>
        <mxCell id="kUVh4Fkj0lX19k7FKr_u-105" style="edgeStyle=orthogonalEdgeStyle;rounded=0;orthogonalLoop=1;jettySize=auto;html=1;exitX=1;exitY=1;exitDx=0;exitDy=0;entryX=0;entryY=0;entryDx=0;entryDy=0;" edge="1" parent="1" target="kUVh4Fkj0lX19k7FKr_u-114">
          <mxGeometry relative="1" as="geometry">
            <mxPoint x="920" y="1520" as="sourcePoint" />
          </mxGeometry>
        </mxCell>
        <mxCell id="kUVh4Fkj0lX19k7FKr_u-106" style="edgeStyle=orthogonalEdgeStyle;rounded=0;orthogonalLoop=1;jettySize=auto;html=1;exitX=0;exitY=1;exitDx=0;exitDy=0;entryX=0;entryY=0;entryDx=0;entryDy=0;" edge="1" parent="1" target="kUVh4Fkj0lX19k7FKr_u-116">
          <mxGeometry relative="1" as="geometry">
            <mxPoint x="1040" y="1520" as="sourcePoint" />
          </mxGeometry>
        </mxCell>
        <mxCell id="kUVh4Fkj0lX19k7FKr_u-107" value="" style="rounded=0;whiteSpace=wrap;html=1;" vertex="1" parent="1">
          <mxGeometry x="600" y="1560" width="40" height="40" as="geometry" />
        </mxCell>
        <mxCell id="kUVh4Fkj0lX19k7FKr_u-108" style="edgeStyle=orthogonalEdgeStyle;rounded=0;orthogonalLoop=1;jettySize=auto;html=1;exitX=0;exitY=1;exitDx=0;exitDy=0;entryX=0;entryY=0.5;entryDx=0;entryDy=0;" edge="1" parent="1" source="kUVh4Fkj0lX19k7FKr_u-109" target="kUVh4Fkj0lX19k7FKr_u-113">
          <mxGeometry relative="1" as="geometry" />
        </mxCell>
        <mxCell id="kUVh4Fkj0lX19k7FKr_u-109" value="" style="rounded=0;whiteSpace=wrap;html=1;" vertex="1" parent="1">
          <mxGeometry x="640" y="1560" width="40" height="40" as="geometry" />
        </mxCell>
        <mxCell id="kUVh4Fkj0lX19k7FKr_u-110" value="" style="rounded=0;whiteSpace=wrap;html=1;" vertex="1" parent="1">
          <mxGeometry x="720" y="1560" width="40" height="40" as="geometry" />
        </mxCell>
        <mxCell id="kUVh4Fkj0lX19k7FKr_u-111" style="edgeStyle=orthogonalEdgeStyle;rounded=0;orthogonalLoop=1;jettySize=auto;html=1;" edge="1" parent="1" source="kUVh4Fkj0lX19k7FKr_u-112">
          <mxGeometry relative="1" as="geometry">
            <mxPoint x="1040" y="1580" as="targetPoint" />
          </mxGeometry>
        </mxCell>
        <mxCell id="kUVh4Fkj0lX19k7FKr_u-112" value="" style="rounded=0;whiteSpace=wrap;html=1;" vertex="1" parent="1">
          <mxGeometry x="760" y="1560" width="40" height="40" as="geometry" />
        </mxCell>
        <mxCell id="kUVh4Fkj0lX19k7FKr_u-113" value="" style="rounded=0;whiteSpace=wrap;html=1;" vertex="1" parent="1">
          <mxGeometry x="880" y="1640" width="40" height="40" as="geometry" />
        </mxCell>
        <mxCell id="kUVh4Fkj0lX19k7FKr_u-114" value="b4" style="rounded=0;whiteSpace=wrap;html=1;fillColor=#ffcccc;strokeColor=#36393d;" vertex="1" parent="1">
          <mxGeometry x="920" y="1640" width="40" height="40" as="geometry" />
        </mxCell>
        <mxCell id="kUVh4Fkj0lX19k7FKr_u-115" value="" style="rounded=0;whiteSpace=wrap;html=1;" vertex="1" parent="1">
          <mxGeometry x="1000" y="1640" width="40" height="40" as="geometry" />
        </mxCell>
        <mxCell id="kUVh4Fkj0lX19k7FKr_u-116" value="" style="rounded=0;whiteSpace=wrap;html=1;" vertex="1" parent="1">
          <mxGeometry x="1040" y="1640" width="40" height="40" as="geometry" />
        </mxCell>
        <mxCell id="kUVh4Fkj0lX19k7FKr_u-117" value="" style="rounded=0;whiteSpace=wrap;html=1;" vertex="1" parent="1">
          <mxGeometry x="40" y="1720" width="40" height="40" as="geometry" />
        </mxCell>
        <mxCell id="kUVh4Fkj0lX19k7FKr_u-118" value="" style="rounded=0;whiteSpace=wrap;html=1;" vertex="1" parent="1">
          <mxGeometry x="80" y="1720" width="40" height="40" as="geometry" />
        </mxCell>
        <mxCell id="kUVh4Fkj0lX19k7FKr_u-119" value="" style="rounded=0;whiteSpace=wrap;html=1;" vertex="1" parent="1">
          <mxGeometry x="160" y="1720" width="40" height="40" as="geometry" />
        </mxCell>
        <mxCell id="kUVh4Fkj0lX19k7FKr_u-120" value="" style="rounded=0;whiteSpace=wrap;html=1;" vertex="1" parent="1">
          <mxGeometry x="200" y="1720" width="40" height="40" as="geometry" />
        </mxCell>
        <mxCell id="kUVh4Fkj0lX19k7FKr_u-121" value="" style="rounded=0;whiteSpace=wrap;html=1;" vertex="1" parent="1">
          <mxGeometry x="320" y="1720" width="40" height="40" as="geometry" />
        </mxCell>
        <mxCell id="kUVh4Fkj0lX19k7FKr_u-122" value="" style="rounded=0;whiteSpace=wrap;html=1;" vertex="1" parent="1">
          <mxGeometry x="360" y="1720" width="40" height="40" as="geometry" />
        </mxCell>
        <mxCell id="kUVh4Fkj0lX19k7FKr_u-123" value="" style="rounded=0;whiteSpace=wrap;html=1;" vertex="1" parent="1">
          <mxGeometry x="440" y="1720" width="40" height="40" as="geometry" />
        </mxCell>
        <mxCell id="kUVh4Fkj0lX19k7FKr_u-124" value="" style="rounded=0;whiteSpace=wrap;html=1;" vertex="1" parent="1">
          <mxGeometry x="480" y="1720" width="40" height="40" as="geometry" />
        </mxCell>
        <mxCell id="kUVh4Fkj0lX19k7FKr_u-125" value="" style="rounded=0;whiteSpace=wrap;html=1;" vertex="1" parent="1">
          <mxGeometry x="600" y="1720" width="40" height="40" as="geometry" />
        </mxCell>
        <mxCell id="kUVh4Fkj0lX19k7FKr_u-126" value="b4" style="rounded=0;whiteSpace=wrap;html=1;fillColor=#ffcccc;strokeColor=#36393d;" vertex="1" parent="1">
          <mxGeometry x="640" y="1720" width="40" height="40" as="geometry" />
        </mxCell>
        <mxCell id="kUVh4Fkj0lX19k7FKr_u-127" value="" style="rounded=0;whiteSpace=wrap;html=1;" vertex="1" parent="1">
          <mxGeometry x="720" y="1720" width="40" height="40" as="geometry" />
        </mxCell>
        <mxCell id="kUVh4Fkj0lX19k7FKr_u-128" value="d2+d4" style="rounded=0;whiteSpace=wrap;html=1;fillColor=#ffcccc;strokeColor=#36393d;" vertex="1" parent="1">
          <mxGeometry x="760" y="1720" width="40" height="40" as="geometry" />
        </mxCell>
        <mxCell id="kUVh4Fkj0lX19k7FKr_u-129" value="" style="rounded=0;whiteSpace=wrap;html=1;" vertex="1" parent="1">
          <mxGeometry x="880" y="1720" width="40" height="40" as="geometry" />
        </mxCell>
        <mxCell id="kUVh4Fkj0lX19k7FKr_u-130" value="" style="rounded=0;whiteSpace=wrap;html=1;" vertex="1" parent="1">
          <mxGeometry x="920" y="1720" width="40" height="40" as="geometry" />
        </mxCell>
        <mxCell id="kUVh4Fkj0lX19k7FKr_u-131" value="" style="rounded=0;whiteSpace=wrap;html=1;" vertex="1" parent="1">
          <mxGeometry x="1000" y="1720" width="40" height="40" as="geometry" />
        </mxCell>
        <mxCell id="kUVh4Fkj0lX19k7FKr_u-132" value="" style="rounded=0;whiteSpace=wrap;html=1;" vertex="1" parent="1">
          <mxGeometry x="1040" y="1720" width="40" height="40" as="geometry" />
        </mxCell>
        <mxCell id="kUVh4Fkj0lX19k7FKr_u-133" value="" style="rounded=1;whiteSpace=wrap;html=1;fillColor=none;dashed=1;strokeWidth=2;" vertex="1" parent="1">
          <mxGeometry x="30" y="990" width="220" height="140" as="geometry" />
        </mxCell>
        <mxCell id="kUVh4Fkj0lX19k7FKr_u-134" value="" style="rounded=1;whiteSpace=wrap;html=1;fillColor=none;dashed=1;strokeWidth=2;" vertex="1" parent="1">
          <mxGeometry x="590" y="990" width="220" height="140" as="geometry" />
        </mxCell>
        <mxCell id="kUVh4Fkj0lX19k7FKr_u-135" value="" style="rounded=1;whiteSpace=wrap;html=1;fillColor=none;dashed=1;strokeWidth=2;" vertex="1" parent="1">
          <mxGeometry x="30" y="1230" width="220" height="140" as="geometry" />
        </mxCell>
        <mxCell id="kUVh4Fkj0lX19k7FKr_u-136" value="" style="rounded=1;whiteSpace=wrap;html=1;fillColor=none;dashed=1;strokeWidth=2;" vertex="1" parent="1">
          <mxGeometry x="590" y="750" width="220" height="140" as="geometry" />
        </mxCell>
      </root>
    </mxGraphModel>
  </diagram>
</mxfile>
